%TF.GenerationSoftware,KiCad,Pcbnew,9.0.6*%
%TF.CreationDate,2025-11-19T16:31:39+08:00*%
%TF.ProjectId,LED-Dimmer,4c45442d-4469-46d6-9d65-722e6b696361,rev?*%
%TF.SameCoordinates,Original*%
%TF.FileFunction,Legend,Top*%
%TF.FilePolarity,Positive*%
%FSLAX46Y46*%
G04 Gerber Fmt 4.6, Leading zero omitted, Abs format (unit mm)*
G04 Created by KiCad (PCBNEW 9.0.6) date 2025-11-19 16:31:39*
%MOMM*%
%LPD*%
G01*
G04 APERTURE LIST*
%ADD10C,0.200000*%
%ADD11C,0.250000*%
%ADD12C,0.100000*%
%ADD13C,0.500000*%
%ADD14C,0.150000*%
%ADD15C,0.120000*%
G04 APERTURE END LIST*
D10*
G36*
X250014712Y-93117969D02*
G01*
X250049272Y-93119678D01*
X250072597Y-93124808D01*
X250085908Y-93133356D01*
X250090000Y-93145324D01*
X250090000Y-93550401D01*
X250086582Y-93571445D01*
X250076688Y-93588381D01*
X250060325Y-93599461D01*
X250033335Y-93603707D01*
X249231547Y-93603707D01*
X249219335Y-93599310D01*
X249210420Y-93584595D01*
X249204986Y-93556934D01*
X249202909Y-93513520D01*
X249204986Y-93469801D01*
X249210420Y-93442445D01*
X249219274Y-93427791D01*
X249231547Y-93423333D01*
X249941500Y-93423333D01*
X249941500Y-93145324D01*
X249945286Y-93133356D01*
X249957559Y-93124808D01*
X249980151Y-93119678D01*
X250014712Y-93117969D01*
G37*
G36*
X250019658Y-92488677D02*
G01*
X250052814Y-92490387D01*
X250074307Y-92495516D01*
X250086275Y-92504064D01*
X250090000Y-92515300D01*
X250090000Y-92959333D01*
X250086582Y-92980378D01*
X250076688Y-92997313D01*
X250060325Y-93008393D01*
X250033335Y-93012639D01*
X249263482Y-93012639D01*
X249236492Y-93008393D01*
X249220129Y-92997313D01*
X249210235Y-92980378D01*
X249206817Y-92959333D01*
X249206817Y-92518047D01*
X249210237Y-92507117D01*
X249222205Y-92498935D01*
X249244064Y-92493806D01*
X249277831Y-92492096D01*
X249310315Y-92493806D01*
X249331809Y-92498935D01*
X249343777Y-92507117D01*
X249347501Y-92518047D01*
X249347501Y-92833609D01*
X249562435Y-92833609D01*
X249562435Y-92566530D01*
X249566221Y-92555294D01*
X249577761Y-92546746D01*
X249598888Y-92541617D01*
X249631189Y-92539907D01*
X249663857Y-92541617D01*
X249684617Y-92546746D01*
X249695853Y-92555294D01*
X249699211Y-92566530D01*
X249699211Y-92833609D01*
X249949316Y-92833609D01*
X249949316Y-92515300D01*
X249953101Y-92504064D01*
X249965008Y-92495516D01*
X249986563Y-92490387D01*
X250019658Y-92488677D01*
G37*
G36*
X249716127Y-91599243D02*
G01*
X249784841Y-91610139D01*
X249843253Y-91627110D01*
X249898481Y-91652005D01*
X249945131Y-91682418D01*
X249984242Y-91718335D01*
X250016995Y-91760164D01*
X250043721Y-91808052D01*
X250064415Y-91862805D01*
X250078077Y-91920056D01*
X250086867Y-91987098D01*
X250090000Y-92065343D01*
X250090000Y-92276430D01*
X250086582Y-92297475D01*
X250076688Y-92314410D01*
X250060325Y-92325490D01*
X250033335Y-92329736D01*
X249263482Y-92329736D01*
X249236492Y-92325490D01*
X249220129Y-92314410D01*
X249210235Y-92297475D01*
X249206817Y-92276430D01*
X249206817Y-92059848D01*
X249347501Y-92059848D01*
X249347501Y-92150706D01*
X249949316Y-92150706D01*
X249949316Y-92057100D01*
X249944140Y-91986631D01*
X249930204Y-91932841D01*
X249905978Y-91886200D01*
X249872379Y-91848456D01*
X249829947Y-91819381D01*
X249776331Y-91797897D01*
X249716233Y-91785623D01*
X249642241Y-91781167D01*
X249580723Y-91784952D01*
X249525310Y-91795882D01*
X249474365Y-91815251D01*
X249431643Y-91843021D01*
X249396627Y-91879656D01*
X249369727Y-91926369D01*
X249353656Y-91981691D01*
X249347501Y-92059848D01*
X249206817Y-92059848D01*
X249206817Y-92049651D01*
X249210238Y-91970946D01*
X249219769Y-91904679D01*
X249234478Y-91849127D01*
X249256301Y-91796214D01*
X249283598Y-91750255D01*
X249316360Y-91710458D01*
X249354895Y-91676260D01*
X249399369Y-91647707D01*
X249450511Y-91624729D01*
X249504488Y-91608870D01*
X249565786Y-91598870D01*
X249635464Y-91595359D01*
X249716127Y-91599243D01*
G37*
G36*
X250022650Y-90583400D02*
G01*
X250054645Y-90585476D01*
X250075528Y-90591277D01*
X250086641Y-90599825D01*
X250090000Y-90610755D01*
X250090000Y-91098508D01*
X250086641Y-91108766D01*
X250075528Y-91117315D01*
X250054645Y-91123115D01*
X250022650Y-91125130D01*
X249989982Y-91123421D01*
X249968733Y-91117986D01*
X249956948Y-91109438D01*
X249953224Y-91098508D01*
X249953224Y-90933827D01*
X249374856Y-90933827D01*
X249453014Y-91075915D01*
X249462234Y-91101561D01*
X249462009Y-91110643D01*
X249458143Y-91117254D01*
X249438054Y-91125130D01*
X249397876Y-91127145D01*
X249370949Y-91126474D01*
X249352936Y-91123054D01*
X249340662Y-91115544D01*
X249330404Y-91102538D01*
X249207855Y-90912639D01*
X249203459Y-90904091D01*
X249200711Y-90890779D01*
X249199368Y-90869286D01*
X249199002Y-90834787D01*
X249200040Y-90792777D01*
X249203459Y-90768536D01*
X249209993Y-90757606D01*
X249220251Y-90754858D01*
X249953224Y-90754858D01*
X249953224Y-90610694D01*
X249956948Y-90599459D01*
X249968733Y-90590605D01*
X249989982Y-90585109D01*
X250022650Y-90583400D01*
G37*
G36*
X249914712Y-85557969D02*
G01*
X249949272Y-85559678D01*
X249972597Y-85564808D01*
X249985908Y-85573356D01*
X249990000Y-85585324D01*
X249990000Y-85990401D01*
X249986582Y-86011445D01*
X249976688Y-86028381D01*
X249960325Y-86039461D01*
X249933335Y-86043707D01*
X249131547Y-86043707D01*
X249119335Y-86039310D01*
X249110420Y-86024595D01*
X249104986Y-85996934D01*
X249102909Y-85953520D01*
X249104986Y-85909801D01*
X249110420Y-85882445D01*
X249119274Y-85867791D01*
X249131547Y-85863333D01*
X249841500Y-85863333D01*
X249841500Y-85585324D01*
X249845286Y-85573356D01*
X249857559Y-85564808D01*
X249880151Y-85559678D01*
X249914712Y-85557969D01*
G37*
G36*
X249919658Y-84928677D02*
G01*
X249952814Y-84930387D01*
X249974307Y-84935516D01*
X249986275Y-84944064D01*
X249990000Y-84955300D01*
X249990000Y-85399333D01*
X249986582Y-85420378D01*
X249976688Y-85437313D01*
X249960325Y-85448393D01*
X249933335Y-85452639D01*
X249163482Y-85452639D01*
X249136492Y-85448393D01*
X249120129Y-85437313D01*
X249110235Y-85420378D01*
X249106817Y-85399333D01*
X249106817Y-84958047D01*
X249110237Y-84947117D01*
X249122205Y-84938935D01*
X249144064Y-84933806D01*
X249177831Y-84932096D01*
X249210315Y-84933806D01*
X249231809Y-84938935D01*
X249243777Y-84947117D01*
X249247501Y-84958047D01*
X249247501Y-85273609D01*
X249462435Y-85273609D01*
X249462435Y-85006530D01*
X249466221Y-84995294D01*
X249477761Y-84986746D01*
X249498888Y-84981617D01*
X249531189Y-84979907D01*
X249563857Y-84981617D01*
X249584617Y-84986746D01*
X249595853Y-84995294D01*
X249599211Y-85006530D01*
X249599211Y-85273609D01*
X249849316Y-85273609D01*
X249849316Y-84955300D01*
X249853101Y-84944064D01*
X249865008Y-84935516D01*
X249886563Y-84930387D01*
X249919658Y-84928677D01*
G37*
G36*
X249616127Y-84039243D02*
G01*
X249684841Y-84050139D01*
X249743253Y-84067110D01*
X249798481Y-84092005D01*
X249845131Y-84122418D01*
X249884242Y-84158335D01*
X249916995Y-84200164D01*
X249943721Y-84248052D01*
X249964415Y-84302805D01*
X249978077Y-84360056D01*
X249986867Y-84427098D01*
X249990000Y-84505343D01*
X249990000Y-84716430D01*
X249986582Y-84737475D01*
X249976688Y-84754410D01*
X249960325Y-84765490D01*
X249933335Y-84769736D01*
X249163482Y-84769736D01*
X249136492Y-84765490D01*
X249120129Y-84754410D01*
X249110235Y-84737475D01*
X249106817Y-84716430D01*
X249106817Y-84499848D01*
X249247501Y-84499848D01*
X249247501Y-84590706D01*
X249849316Y-84590706D01*
X249849316Y-84497100D01*
X249844140Y-84426631D01*
X249830204Y-84372841D01*
X249805978Y-84326200D01*
X249772379Y-84288456D01*
X249729947Y-84259381D01*
X249676331Y-84237897D01*
X249616233Y-84225623D01*
X249542241Y-84221167D01*
X249480723Y-84224952D01*
X249425310Y-84235882D01*
X249374365Y-84255251D01*
X249331643Y-84283021D01*
X249296627Y-84319656D01*
X249269727Y-84366369D01*
X249253656Y-84421691D01*
X249247501Y-84499848D01*
X249106817Y-84499848D01*
X249106817Y-84489651D01*
X249110238Y-84410946D01*
X249119769Y-84344679D01*
X249134478Y-84289127D01*
X249156301Y-84236214D01*
X249183598Y-84190255D01*
X249216360Y-84150458D01*
X249254895Y-84116260D01*
X249299369Y-84087707D01*
X249350511Y-84064729D01*
X249404488Y-84048870D01*
X249465786Y-84038870D01*
X249535464Y-84035359D01*
X249616127Y-84039243D01*
G37*
G36*
X249917337Y-83015218D02*
G01*
X249950982Y-83016927D01*
X249973757Y-83022056D01*
X249986275Y-83030971D01*
X249990000Y-83043244D01*
X249990000Y-83551453D01*
X249987313Y-83577404D01*
X249976749Y-83595172D01*
X249953974Y-83605064D01*
X249915200Y-83608117D01*
X249876793Y-83606102D01*
X249848278Y-83598592D01*
X249823792Y-83584548D01*
X249797597Y-83562322D01*
X249632733Y-83409364D01*
X249585376Y-83366510D01*
X249545844Y-83335603D01*
X249474281Y-83291884D01*
X249442143Y-83278255D01*
X249414624Y-83270329D01*
X249362784Y-83264528D01*
X249319553Y-83271734D01*
X249300363Y-83280658D01*
X249283954Y-83292922D01*
X249270500Y-83308491D01*
X249260080Y-83328093D01*
X249253705Y-83350389D01*
X249251409Y-83377918D01*
X249254096Y-83416863D01*
X249261606Y-83449298D01*
X249284321Y-83503948D01*
X249307341Y-83543271D01*
X249315723Y-83558479D01*
X249317843Y-83567817D01*
X249313752Y-83578442D01*
X249300013Y-83585647D01*
X249274246Y-83590043D01*
X249234740Y-83591753D01*
X249208300Y-83590715D01*
X249189799Y-83587662D01*
X249176060Y-83582166D01*
X249161955Y-83570259D01*
X249141683Y-83538813D01*
X249118236Y-83482454D01*
X249099002Y-83408693D01*
X249093169Y-83367807D01*
X249091186Y-83324612D01*
X249095807Y-83258137D01*
X249108588Y-83204078D01*
X249129911Y-83155966D01*
X249157070Y-83118349D01*
X249191036Y-83088499D01*
X249230771Y-83067424D01*
X249274628Y-83054949D01*
X249322545Y-83050694D01*
X249365312Y-83052762D01*
X249407236Y-83058937D01*
X249449030Y-83071002D01*
X249497056Y-83093070D01*
X249545517Y-83122800D01*
X249603546Y-83166160D01*
X249663397Y-83218011D01*
X249739101Y-83291151D01*
X249845408Y-83394344D01*
X249845408Y-83045931D01*
X249849499Y-83033353D01*
X249862016Y-83023400D01*
X249884426Y-83017294D01*
X249917337Y-83015218D01*
G37*
D11*
G36*
X249864712Y-78057969D02*
G01*
X249899272Y-78059678D01*
X249922597Y-78064808D01*
X249935908Y-78073356D01*
X249940000Y-78085324D01*
X249940000Y-78490401D01*
X249936582Y-78511445D01*
X249926688Y-78528381D01*
X249910325Y-78539461D01*
X249883335Y-78543707D01*
X249081547Y-78543707D01*
X249069335Y-78539310D01*
X249060420Y-78524595D01*
X249054986Y-78496934D01*
X249052909Y-78453520D01*
X249054986Y-78409801D01*
X249060420Y-78382445D01*
X249069274Y-78367791D01*
X249081547Y-78363333D01*
X249791500Y-78363333D01*
X249791500Y-78085324D01*
X249795286Y-78073356D01*
X249807559Y-78064808D01*
X249830151Y-78059678D01*
X249864712Y-78057969D01*
G37*
G36*
X249869658Y-77428677D02*
G01*
X249902814Y-77430387D01*
X249924307Y-77435516D01*
X249936275Y-77444064D01*
X249940000Y-77455300D01*
X249940000Y-77899333D01*
X249936582Y-77920378D01*
X249926688Y-77937313D01*
X249910325Y-77948393D01*
X249883335Y-77952639D01*
X249113482Y-77952639D01*
X249086492Y-77948393D01*
X249070129Y-77937313D01*
X249060235Y-77920378D01*
X249056817Y-77899333D01*
X249056817Y-77458047D01*
X249060237Y-77447117D01*
X249072205Y-77438935D01*
X249094064Y-77433806D01*
X249127831Y-77432096D01*
X249160315Y-77433806D01*
X249181809Y-77438935D01*
X249193777Y-77447117D01*
X249197501Y-77458047D01*
X249197501Y-77773609D01*
X249412435Y-77773609D01*
X249412435Y-77506530D01*
X249416221Y-77495294D01*
X249427761Y-77486746D01*
X249448888Y-77481617D01*
X249481189Y-77479907D01*
X249513857Y-77481617D01*
X249534617Y-77486746D01*
X249545853Y-77495294D01*
X249549211Y-77506530D01*
X249549211Y-77773609D01*
X249799316Y-77773609D01*
X249799316Y-77455300D01*
X249803101Y-77444064D01*
X249815008Y-77435516D01*
X249836563Y-77430387D01*
X249869658Y-77428677D01*
G37*
G36*
X249566127Y-76539243D02*
G01*
X249634841Y-76550139D01*
X249693253Y-76567110D01*
X249748481Y-76592005D01*
X249795131Y-76622418D01*
X249834242Y-76658335D01*
X249866995Y-76700164D01*
X249893721Y-76748052D01*
X249914415Y-76802805D01*
X249928077Y-76860056D01*
X249936867Y-76927098D01*
X249940000Y-77005343D01*
X249940000Y-77216430D01*
X249936582Y-77237475D01*
X249926688Y-77254410D01*
X249910325Y-77265490D01*
X249883335Y-77269736D01*
X249113482Y-77269736D01*
X249086492Y-77265490D01*
X249070129Y-77254410D01*
X249060235Y-77237475D01*
X249056817Y-77216430D01*
X249056817Y-76999848D01*
X249197501Y-76999848D01*
X249197501Y-77090706D01*
X249799316Y-77090706D01*
X249799316Y-76997100D01*
X249794140Y-76926631D01*
X249780204Y-76872841D01*
X249755978Y-76826200D01*
X249722379Y-76788456D01*
X249679947Y-76759381D01*
X249626331Y-76737897D01*
X249566233Y-76725623D01*
X249492241Y-76721167D01*
X249430723Y-76724952D01*
X249375310Y-76735882D01*
X249324365Y-76755251D01*
X249281643Y-76783021D01*
X249246627Y-76819656D01*
X249219727Y-76866369D01*
X249203656Y-76921691D01*
X249197501Y-76999848D01*
X249056817Y-76999848D01*
X249056817Y-76989651D01*
X249060238Y-76910946D01*
X249069769Y-76844679D01*
X249084478Y-76789127D01*
X249106301Y-76736214D01*
X249133598Y-76690255D01*
X249166360Y-76650458D01*
X249204895Y-76616260D01*
X249249369Y-76587707D01*
X249300511Y-76564729D01*
X249354488Y-76548870D01*
X249415786Y-76538870D01*
X249485464Y-76535359D01*
X249566127Y-76539243D01*
G37*
G36*
X249679820Y-75519309D02*
G01*
X249743698Y-75525865D01*
X249797850Y-75544588D01*
X249845175Y-75574843D01*
X249884251Y-75614991D01*
X249914589Y-75663583D01*
X249937435Y-75722885D01*
X249950935Y-75787515D01*
X249955631Y-75860150D01*
X249948853Y-75944902D01*
X249932184Y-76014938D01*
X249911606Y-76065130D01*
X249895486Y-76091081D01*
X249883213Y-76100301D01*
X249867215Y-76105736D01*
X249844073Y-76109155D01*
X249810307Y-76110193D01*
X249780178Y-76108511D01*
X249765061Y-76104759D01*
X249755375Y-76097631D01*
X249752421Y-76088333D01*
X249761763Y-76064764D01*
X249781730Y-76022083D01*
X249801758Y-75961327D01*
X249808592Y-75925133D01*
X249811039Y-75882009D01*
X249808697Y-75845719D01*
X249802185Y-75815758D01*
X249791245Y-75788730D01*
X249777212Y-75766910D01*
X249759316Y-75749262D01*
X249738194Y-75736868D01*
X249714327Y-75729519D01*
X249687208Y-75726976D01*
X249657574Y-75730056D01*
X249631826Y-75738944D01*
X249609146Y-75753668D01*
X249589755Y-75774481D01*
X249574675Y-75800186D01*
X249562705Y-75833893D01*
X249555687Y-75871418D01*
X249553119Y-75918218D01*
X249553119Y-75994727D01*
X249550737Y-76009748D01*
X249540724Y-76020006D01*
X249519719Y-76025807D01*
X249484975Y-76027517D01*
X249452308Y-76025807D01*
X249432646Y-76020373D01*
X249422998Y-76010786D01*
X249420251Y-75996803D01*
X249420251Y-75919623D01*
X249417881Y-75881256D01*
X249411275Y-75849281D01*
X249400031Y-75820398D01*
X249385568Y-75797684D01*
X249367039Y-75779290D01*
X249345146Y-75765933D01*
X249320449Y-75757800D01*
X249292634Y-75755003D01*
X249250929Y-75762513D01*
X249232495Y-75771861D01*
X249216857Y-75784740D01*
X249204272Y-75801103D01*
X249194143Y-75822658D01*
X249188002Y-75847070D01*
X249185778Y-75877308D01*
X249188401Y-75912058D01*
X249196097Y-75944230D01*
X249218689Y-76000589D01*
X249241587Y-76042965D01*
X249252212Y-76068550D01*
X249249830Y-76078136D01*
X249240549Y-76084975D01*
X249220582Y-76089066D01*
X249186816Y-76090409D01*
X249158239Y-76089738D01*
X249139310Y-76086990D01*
X249126243Y-76081861D01*
X249114153Y-76071969D01*
X249094858Y-76043942D01*
X249070068Y-75990697D01*
X249049612Y-75916570D01*
X249043368Y-75873564D01*
X249041186Y-75825345D01*
X249045137Y-75763206D01*
X249056146Y-75711589D01*
X249074795Y-75665164D01*
X249099193Y-75628302D01*
X249130510Y-75598621D01*
X249168375Y-75577072D01*
X249211203Y-75564133D01*
X249260943Y-75559609D01*
X249300116Y-75562239D01*
X249335621Y-75569867D01*
X249368587Y-75582637D01*
X249397292Y-75599909D01*
X249422233Y-75622031D01*
X249443393Y-75649429D01*
X249459787Y-75680875D01*
X249471908Y-75718061D01*
X249473984Y-75718061D01*
X249482845Y-75673326D01*
X249497676Y-75634713D01*
X249518399Y-75600312D01*
X249543288Y-75572248D01*
X249572549Y-75549592D01*
X249605387Y-75532986D01*
X249641002Y-75522784D01*
X249679820Y-75519309D01*
G37*
D12*
G36*
X224032788Y-75699919D02*
G01*
X224081297Y-75708114D01*
X224124360Y-75722555D01*
X224157501Y-75741331D01*
X224184209Y-75766006D01*
X224202930Y-75795491D01*
X224214043Y-75829320D01*
X224217951Y-75869436D01*
X224215079Y-75910471D01*
X224206655Y-75948571D01*
X224192952Y-75984564D01*
X224174537Y-76017447D01*
X224151522Y-76047038D01*
X224123979Y-76072951D01*
X224092603Y-76094683D01*
X224056751Y-76112641D01*
X224084558Y-76120309D01*
X224110362Y-76132363D01*
X224133569Y-76148505D01*
X224153044Y-76168084D01*
X224168667Y-76191149D01*
X224180704Y-76218764D01*
X224188085Y-76248999D01*
X224190657Y-76283367D01*
X224188285Y-76319347D01*
X224181071Y-76355846D01*
X224169044Y-76391320D01*
X224152006Y-76425272D01*
X224130343Y-76456843D01*
X224103524Y-76486454D01*
X224072410Y-76512619D01*
X224035563Y-76535792D01*
X223994907Y-76554264D01*
X223948429Y-76568459D01*
X223898287Y-76576921D01*
X223836749Y-76580000D01*
X223602459Y-76580000D01*
X223581961Y-76576942D01*
X223568632Y-76568825D01*
X223561927Y-76555333D01*
X223563503Y-76532433D01*
X223573311Y-76483279D01*
X223689227Y-76483279D01*
X223853846Y-76483279D01*
X223907336Y-76478985D01*
X223948490Y-76467342D01*
X223984422Y-76448482D01*
X224013032Y-76425211D01*
X224035875Y-76396992D01*
X224052599Y-76364455D01*
X224062840Y-76329022D01*
X224066277Y-76291732D01*
X224061559Y-76256146D01*
X224048178Y-76227630D01*
X224025976Y-76204476D01*
X223997326Y-76188503D01*
X223957100Y-76177685D01*
X223901657Y-76173579D01*
X223750715Y-76173579D01*
X223689227Y-76483279D01*
X223573311Y-76483279D01*
X223653821Y-76079790D01*
X223770498Y-76079790D01*
X223903733Y-76079790D01*
X223954770Y-76074968D01*
X223992515Y-76062021D01*
X224024550Y-76041443D01*
X224049546Y-76016470D01*
X224068877Y-75987198D01*
X224082336Y-75955104D01*
X224090391Y-75921676D01*
X224092960Y-75890685D01*
X224091008Y-75868840D01*
X224085450Y-75850202D01*
X224075757Y-75833810D01*
X224061209Y-75819672D01*
X224042891Y-75808649D01*
X224018832Y-75799766D01*
X223991206Y-75794583D01*
X223951543Y-75792561D01*
X223827224Y-75792561D01*
X223770498Y-76079790D01*
X223653821Y-76079790D01*
X223720673Y-75744750D01*
X223728956Y-75721350D01*
X223742533Y-75707442D01*
X223760159Y-75699416D01*
X223778070Y-75696817D01*
X223967908Y-75696817D01*
X224032788Y-75699919D01*
G37*
G36*
X224700652Y-75922259D02*
G01*
X224747103Y-75940816D01*
X224787696Y-75970199D01*
X224824651Y-76009937D01*
X224837657Y-75947838D01*
X224842694Y-75938668D01*
X224853288Y-75932145D01*
X224893649Y-75927383D01*
X224916547Y-75928421D01*
X224931202Y-75932145D01*
X224937979Y-75938984D01*
X224938712Y-75947838D01*
X224815736Y-76562780D01*
X224810707Y-76572563D01*
X224800715Y-76579145D01*
X224759743Y-76583907D01*
X224737151Y-76582503D01*
X224722801Y-76578778D01*
X224715291Y-76572672D01*
X224715352Y-76562719D01*
X224737883Y-76446704D01*
X224726254Y-76468169D01*
X224705765Y-76494148D01*
X224680765Y-76518586D01*
X224650750Y-76541592D01*
X224617523Y-76561241D01*
X224580041Y-76577496D01*
X224540664Y-76588190D01*
X224500846Y-76591723D01*
X224449165Y-76586574D01*
X224410293Y-76572611D01*
X224377870Y-76550153D01*
X224353262Y-76521992D01*
X224335561Y-76488779D01*
X224324258Y-76450917D01*
X224318364Y-76410879D01*
X224316381Y-76369584D01*
X224317084Y-76361036D01*
X224434595Y-76361036D01*
X224438319Y-76408541D01*
X224452669Y-76451589D01*
X224465264Y-76469207D01*
X224481734Y-76483035D01*
X224502018Y-76491783D01*
X224529544Y-76495003D01*
X224566530Y-76490007D01*
X224605015Y-76474303D01*
X224641085Y-76450077D01*
X224675724Y-76416967D01*
X224706191Y-76377769D01*
X224733792Y-76330811D01*
X224755610Y-76279305D01*
X224771345Y-76221512D01*
X224794548Y-76108916D01*
X224759951Y-76065422D01*
X224725183Y-76036498D01*
X224685922Y-76018480D01*
X224641530Y-76012379D01*
X224606158Y-76016818D01*
X224574912Y-76029842D01*
X224547139Y-76049887D01*
X224522339Y-76075943D01*
X224501205Y-76106246D01*
X224482711Y-76141217D01*
X224455355Y-76216810D01*
X224439663Y-76293381D01*
X224434595Y-76361036D01*
X224317084Y-76361036D01*
X224323525Y-76282756D01*
X224332832Y-76234187D01*
X224346789Y-76183654D01*
X224365178Y-76133860D01*
X224388433Y-76085225D01*
X224416850Y-76039660D01*
X224450287Y-75999434D01*
X224489345Y-75965262D01*
X224534307Y-75938557D01*
X224584444Y-75921580D01*
X224642934Y-75915659D01*
X224700652Y-75922259D01*
G37*
G36*
X225882527Y-75955959D02*
G01*
X225881489Y-75969331D01*
X225878375Y-75984047D01*
X225873613Y-75999068D01*
X225866774Y-76012440D01*
X225858225Y-76021660D01*
X225847662Y-76025080D01*
X225689881Y-76025080D01*
X225621554Y-76367264D01*
X225616425Y-76399199D01*
X225614715Y-76428386D01*
X225618776Y-76459998D01*
X225629064Y-76479066D01*
X225646776Y-76490527D01*
X225676875Y-76495003D01*
X225708627Y-76491950D01*
X225731891Y-76485416D01*
X225748927Y-76478944D01*
X225762299Y-76475830D01*
X225770786Y-76479616D01*
X225773900Y-76493599D01*
X225772191Y-76513199D01*
X225767733Y-76534143D01*
X225761200Y-76552644D01*
X225752712Y-76565650D01*
X225736348Y-76575298D01*
X225710703Y-76583846D01*
X225679989Y-76589647D01*
X225648909Y-76591723D01*
X225611935Y-76589543D01*
X225581926Y-76583541D01*
X225555302Y-76572813D01*
X225534481Y-76557957D01*
X225518214Y-76538563D01*
X225506454Y-76514298D01*
X225499710Y-76486547D01*
X225497234Y-76451222D01*
X225498272Y-76433087D01*
X225500654Y-76412327D01*
X225503707Y-76390467D01*
X225507493Y-76370012D01*
X225577163Y-76025080D01*
X225271798Y-76025080D01*
X225202800Y-76367264D01*
X225197976Y-76399199D01*
X225195961Y-76428386D01*
X225200098Y-76459967D01*
X225210615Y-76479066D01*
X225228547Y-76490565D01*
X225258121Y-76495003D01*
X225290239Y-76491950D01*
X225313808Y-76485416D01*
X225331210Y-76478944D01*
X225344216Y-76475830D01*
X225352704Y-76479616D01*
X225355818Y-76493599D01*
X225354108Y-76513199D01*
X225349651Y-76534143D01*
X225342812Y-76552644D01*
X225333958Y-76565650D01*
X225317594Y-76575298D01*
X225292315Y-76583846D01*
X225261906Y-76589647D01*
X225230155Y-76591723D01*
X225193261Y-76589530D01*
X225163843Y-76583541D01*
X225137732Y-76572867D01*
X225116704Y-76557957D01*
X225100194Y-76538539D01*
X225088372Y-76514298D01*
X225081628Y-76486547D01*
X225079152Y-76451222D01*
X225079823Y-76433087D01*
X225082266Y-76412327D01*
X225085624Y-76390467D01*
X225089410Y-76370012D01*
X225158408Y-76025080D01*
X225073046Y-76025080D01*
X225061383Y-76020622D01*
X225057292Y-76003159D01*
X225059307Y-75980933D01*
X225065474Y-75957302D01*
X225076099Y-75938862D01*
X225091486Y-75931290D01*
X225177520Y-75931290D01*
X225206891Y-75785111D01*
X225211287Y-75776257D01*
X225221912Y-75769052D01*
X225239986Y-75764656D01*
X225267707Y-75763251D01*
X225294635Y-75764656D01*
X225311060Y-75769052D01*
X225318571Y-75776257D01*
X225319609Y-75785111D01*
X225290239Y-75931290D01*
X225595603Y-75931290D01*
X225630408Y-75754031D01*
X225635232Y-75744445D01*
X225645795Y-75737850D01*
X225663869Y-75733698D01*
X225691896Y-75731988D01*
X225718213Y-75733698D01*
X225734944Y-75737850D01*
X225742821Y-75744445D01*
X225743859Y-75754031D01*
X225708993Y-75931290D01*
X225866102Y-75931290D01*
X225874776Y-75933310D01*
X225879413Y-75938862D01*
X225882527Y-75955959D01*
G37*
G36*
X226327593Y-75919519D02*
G01*
X226369975Y-75929947D01*
X226407287Y-75946799D01*
X226435554Y-75966706D01*
X226457988Y-75990862D01*
X226472801Y-76016775D01*
X226481569Y-76044602D01*
X226484403Y-76071608D01*
X226478831Y-76116609D01*
X226462543Y-76156055D01*
X226435439Y-76189912D01*
X226394216Y-76220047D01*
X226343815Y-76242668D01*
X226275392Y-76260896D01*
X226199404Y-76271310D01*
X226101919Y-76275184D01*
X226029501Y-76275184D01*
X226022967Y-76319209D01*
X226021257Y-76359143D01*
X226025498Y-76403815D01*
X226037074Y-76438121D01*
X226055085Y-76464412D01*
X226080140Y-76483533D01*
X226115517Y-76496124D01*
X226164750Y-76500865D01*
X226207325Y-76499108D01*
X226243274Y-76494209D01*
X226303724Y-76479860D01*
X226345734Y-76465511D01*
X226368326Y-76458855D01*
X226377486Y-76463374D01*
X226380600Y-76476074D01*
X226379195Y-76492622D01*
X226375104Y-76512222D01*
X226367960Y-76531151D01*
X226358068Y-76546294D01*
X226329003Y-76562475D01*
X226279483Y-76576946D01*
X226216591Y-76587571D01*
X226148325Y-76591723D01*
X226089654Y-76588088D01*
X226041774Y-76578046D01*
X225999165Y-76560339D01*
X225965570Y-76536036D01*
X225939260Y-76504491D01*
X225920141Y-76465266D01*
X225909116Y-76420694D01*
X225905120Y-76365432D01*
X225907174Y-76320344D01*
X225913668Y-76270116D01*
X225924642Y-76219630D01*
X225933079Y-76193119D01*
X226049284Y-76193119D01*
X226118954Y-76193119D01*
X226187774Y-76190695D01*
X226238817Y-76184326D01*
X226284243Y-76173222D01*
X226315997Y-76160207D01*
X226341660Y-76142909D01*
X226357030Y-76124609D01*
X226366044Y-76103621D01*
X226368998Y-76081866D01*
X226362167Y-76050620D01*
X226341643Y-76025935D01*
X226310448Y-76010449D01*
X226263790Y-76004563D01*
X226221114Y-76008544D01*
X226185205Y-76019829D01*
X226152971Y-76037757D01*
X226124755Y-76060861D01*
X226100526Y-76088532D01*
X226079692Y-76120884D01*
X226062716Y-76156001D01*
X226049284Y-76193119D01*
X225933079Y-76193119D01*
X225940657Y-76169305D01*
X225961768Y-76120519D01*
X225988468Y-76073562D01*
X226020727Y-76030424D01*
X226058504Y-75992901D01*
X226101931Y-75961684D01*
X226152416Y-75936847D01*
X226207973Y-75921161D01*
X226272644Y-75915659D01*
X226327593Y-75919519D01*
G37*
G36*
X227035842Y-75947044D02*
G01*
X227034804Y-75957669D01*
X227032423Y-75975743D01*
X227028332Y-75996870D01*
X227021493Y-76017020D01*
X227012944Y-76032407D01*
X227003053Y-76038574D01*
X226991085Y-76036193D01*
X226976735Y-76030392D01*
X226958661Y-76024591D01*
X226934787Y-76022149D01*
X226911390Y-76026638D01*
X226881175Y-76042482D01*
X226851942Y-76065777D01*
X226821397Y-76098536D01*
X226793859Y-76136695D01*
X226767725Y-76183166D01*
X226746787Y-76233651D01*
X226731882Y-76289106D01*
X226677904Y-76562780D01*
X226673142Y-76572001D01*
X226662883Y-76578473D01*
X226644748Y-76582503D01*
X226617088Y-76583907D01*
X226589427Y-76582503D01*
X226573063Y-76578473D01*
X226565553Y-76572001D01*
X226565186Y-76562780D01*
X226687491Y-75947838D01*
X226691582Y-75938984D01*
X226701840Y-75932145D01*
X226718571Y-75928421D01*
X226742140Y-75927383D01*
X226765710Y-75928421D01*
X226779998Y-75932145D01*
X226786470Y-75938984D01*
X226787203Y-75947838D01*
X226764672Y-76059762D01*
X226801857Y-76005052D01*
X226848691Y-75958951D01*
X226874772Y-75941090D01*
X226901631Y-75927444D01*
X226929439Y-75918517D01*
X226955914Y-75915659D01*
X226979483Y-75917369D01*
X227001709Y-75921460D01*
X227019783Y-75926955D01*
X227031751Y-75934099D01*
X227035842Y-75947044D01*
G37*
G36*
X227643335Y-75943747D02*
G01*
X227641931Y-75959134D01*
X227637168Y-75973789D01*
X227588014Y-76103176D01*
X227525854Y-76243799D01*
X227488042Y-76317488D01*
X227442812Y-76397062D01*
X227392080Y-76477121D01*
X227329788Y-76564979D01*
X227152834Y-76807451D01*
X227142576Y-76817037D01*
X227127555Y-76824242D01*
X227106062Y-76828700D01*
X227076325Y-76830104D01*
X227045917Y-76828394D01*
X227027782Y-76822533D01*
X227022348Y-76811542D01*
X227030530Y-76795055D01*
X227197226Y-76580000D01*
X227095437Y-75979956D01*
X227093361Y-75964935D01*
X227092690Y-75953333D01*
X227095071Y-75940694D01*
X227104352Y-75932512D01*
X227122426Y-75928421D01*
X227150087Y-75927383D01*
X227179091Y-75928421D01*
X227195516Y-75931840D01*
X227203698Y-75938984D01*
X227206812Y-75950586D01*
X227286741Y-76451650D01*
X227288084Y-76451650D01*
X227328575Y-76391457D01*
X227364593Y-76330811D01*
X227427486Y-76206247D01*
X227480425Y-76078630D01*
X227525854Y-75947838D01*
X227530922Y-75938679D01*
X227541852Y-75932206D01*
X227561331Y-75928421D01*
X227592105Y-75927383D01*
X227633077Y-75931474D01*
X227640988Y-75936855D01*
X227643335Y-75943747D01*
G37*
D13*
X232844862Y-81467333D02*
X231321053Y-81467333D01*
X232082957Y-82229238D02*
X232082957Y-80705428D01*
D10*
G36*
X226368104Y-77571197D02*
G01*
X226394132Y-77580357D01*
X226416143Y-77596512D01*
X226435104Y-77622367D01*
X226448820Y-77654917D01*
X226459711Y-77701563D01*
X226465640Y-77754122D01*
X226467894Y-77824783D01*
X226438985Y-77842591D01*
X226405367Y-77856840D01*
X226369372Y-77865815D01*
X226330568Y-77868869D01*
X226299899Y-77866477D01*
X226275919Y-77859954D01*
X226255404Y-77848568D01*
X226239404Y-77832721D01*
X226227569Y-77812703D01*
X226218888Y-77786620D01*
X226214139Y-77757589D01*
X226212416Y-77722201D01*
X226214363Y-77689257D01*
X226219926Y-77660225D01*
X226229584Y-77633529D01*
X226242824Y-77611376D01*
X226260161Y-77593015D01*
X226281414Y-77579319D01*
X226306085Y-77570960D01*
X226336735Y-77567962D01*
X226368104Y-77571197D01*
G37*
G36*
X227622047Y-78456742D02*
G01*
X223349726Y-78456742D01*
X223349726Y-78219235D01*
X223460837Y-78219235D01*
X223461508Y-78250010D01*
X223463890Y-78271564D01*
X223468347Y-78286280D01*
X223476896Y-78297515D01*
X223501442Y-78310765D01*
X223549619Y-78326946D01*
X223615870Y-78340319D01*
X223693783Y-78345631D01*
X223769463Y-78340340D01*
X223835505Y-78325237D01*
X223895571Y-78299857D01*
X223944804Y-78266374D01*
X223984967Y-78223663D01*
X224015146Y-78171730D01*
X224033641Y-78112929D01*
X224040120Y-78044113D01*
X224034907Y-77983235D01*
X224020275Y-77932800D01*
X223995812Y-77888526D01*
X223962573Y-77852505D01*
X223921105Y-77824536D01*
X223868967Y-77803473D01*
X223811038Y-77791200D01*
X223741594Y-77786803D01*
X223692074Y-77787536D01*
X223644568Y-77790894D01*
X223644568Y-77599225D01*
X223958787Y-77599225D01*
X223970284Y-77595124D01*
X223979609Y-77580968D01*
X223984654Y-77559811D01*
X223986814Y-77521983D01*
X223985104Y-77487178D01*
X223982235Y-77474966D01*
X224121269Y-77474966D01*
X224131161Y-77513862D01*
X224394211Y-78296355D01*
X224400012Y-78311071D01*
X224408865Y-78320963D01*
X224423215Y-78327801D01*
X224445441Y-78331831D01*
X224478536Y-78333541D01*
X224525369Y-78333907D01*
X224580629Y-78332869D01*
X224614090Y-78328107D01*
X224631859Y-78317238D01*
X224640774Y-78298431D01*
X224746164Y-77985434D01*
X225287895Y-77985434D01*
X225290180Y-78021395D01*
X225295406Y-78040389D01*
X225305376Y-78052474D01*
X225320013Y-78056448D01*
X225604190Y-78056448D01*
X225618289Y-78052588D01*
X225628126Y-78040755D01*
X225633331Y-78021993D01*
X225635636Y-77985434D01*
X225633926Y-77952644D01*
X225628126Y-77930785D01*
X225618234Y-77919183D01*
X225604190Y-77915764D01*
X225320013Y-77915764D01*
X225305343Y-77919668D01*
X225295406Y-77931456D01*
X225290183Y-77950059D01*
X225287895Y-77985434D01*
X224746164Y-77985434D01*
X224830192Y-77735879D01*
X226036133Y-77735879D01*
X226039805Y-77797042D01*
X226050116Y-77848902D01*
X226068630Y-77895666D01*
X226094874Y-77933777D01*
X226129641Y-77964148D01*
X226174802Y-77987144D01*
X226227043Y-78000663D01*
X226294359Y-78005645D01*
X226349835Y-78001787D01*
X226396147Y-77990990D01*
X226438440Y-77974488D01*
X226471985Y-77956491D01*
X226468008Y-78006195D01*
X226458979Y-78052723D01*
X226443903Y-78096174D01*
X226422770Y-78133201D01*
X226394638Y-78164212D01*
X226358595Y-78188400D01*
X226316083Y-78203406D01*
X226261569Y-78208855D01*
X226200753Y-78204092D01*
X226151904Y-78193162D01*
X226115390Y-78182233D01*
X226092126Y-78177470D01*
X226081562Y-78179851D01*
X226074052Y-78189743D01*
X226069961Y-78210809D01*
X226068923Y-78246591D01*
X226072342Y-78284326D01*
X226083272Y-78304904D01*
X226107513Y-78318703D01*
X226148119Y-78331465D01*
X226201058Y-78341601D01*
X226259493Y-78345631D01*
X226339611Y-78339824D01*
X226403963Y-78323832D01*
X226461406Y-78297636D01*
X226507827Y-78264787D01*
X226546631Y-78224442D01*
X226577559Y-78177775D01*
X226601602Y-78126666D01*
X226619874Y-78072690D01*
X226632763Y-78016844D01*
X226640695Y-77959727D01*
X226646191Y-77848169D01*
X226641062Y-77735573D01*
X226633920Y-77682776D01*
X226623293Y-77635251D01*
X226608062Y-77590511D01*
X226588427Y-77550987D01*
X226563406Y-77515766D01*
X226533106Y-77486446D01*
X226515435Y-77474966D01*
X226717082Y-77474966D01*
X226726974Y-77513862D01*
X226990024Y-78296355D01*
X226995824Y-78311071D01*
X227004678Y-78320963D01*
X227019028Y-78327801D01*
X227041254Y-78331831D01*
X227074349Y-78333541D01*
X227121182Y-78333907D01*
X227176442Y-78332869D01*
X227209903Y-78328107D01*
X227227672Y-78317238D01*
X227236587Y-78298431D01*
X227500308Y-77515205D01*
X227510872Y-77477042D01*
X227510936Y-77463796D01*
X227506781Y-77454877D01*
X227498424Y-77448837D01*
X227482845Y-77444986D01*
X227434057Y-77442909D01*
X227383499Y-77444314D01*
X227355106Y-77449748D01*
X227341123Y-77460983D01*
X227334284Y-77479729D01*
X227123197Y-78157198D01*
X227122525Y-78157198D01*
X226907348Y-77476310D01*
X226900142Y-77459274D01*
X226886831Y-77449077D01*
X226859537Y-77444314D01*
X226810322Y-77442909D01*
X226752925Y-77444619D01*
X226734279Y-77448059D01*
X226723921Y-77453473D01*
X226718062Y-77462038D01*
X226717082Y-77474966D01*
X226515435Y-77474966D01*
X226497376Y-77463234D01*
X226453850Y-77445535D01*
X226405583Y-77435001D01*
X226346261Y-77431186D01*
X226272614Y-77437132D01*
X226211683Y-77453778D01*
X226157794Y-77481296D01*
X226114657Y-77517098D01*
X226080705Y-77561300D01*
X226055917Y-77613635D01*
X226041220Y-77671235D01*
X226037209Y-77722201D01*
X226036133Y-77735879D01*
X224830192Y-77735879D01*
X224904495Y-77515205D01*
X224915059Y-77477042D01*
X224915123Y-77463796D01*
X224910968Y-77454877D01*
X224902611Y-77448837D01*
X224887032Y-77444986D01*
X224838244Y-77442909D01*
X224787686Y-77444314D01*
X224759293Y-77449748D01*
X224745310Y-77460983D01*
X224738471Y-77479729D01*
X224527384Y-78157198D01*
X224526712Y-78157198D01*
X224311535Y-77476310D01*
X224304329Y-77459274D01*
X224291018Y-77449077D01*
X224263724Y-77444314D01*
X224214509Y-77442909D01*
X224157112Y-77444619D01*
X224138466Y-77448059D01*
X224128108Y-77453473D01*
X224122249Y-77462038D01*
X224121269Y-77474966D01*
X223982235Y-77474966D01*
X223979609Y-77463792D01*
X223970388Y-77450908D01*
X223958787Y-77446817D01*
X223540094Y-77446817D01*
X223519201Y-77450114D01*
X223506266Y-77458785D01*
X223498739Y-77473140D01*
X223495702Y-77497986D01*
X223495702Y-77881448D01*
X223498268Y-77905613D01*
X223504251Y-77918023D01*
X223514826Y-77925158D01*
X223532583Y-77927915D01*
X223593705Y-77923824D01*
X223665818Y-77919672D01*
X223713716Y-77922081D01*
X223750448Y-77928525D01*
X223782947Y-77939964D01*
X223807173Y-77955026D01*
X223826174Y-77974697D01*
X223839291Y-77998196D01*
X223846873Y-78024819D01*
X223849549Y-78056264D01*
X223846270Y-78092650D01*
X223837215Y-78121538D01*
X223822307Y-78146512D01*
X223802410Y-78166723D01*
X223777901Y-78182034D01*
X223747395Y-78192918D01*
X223713953Y-78198920D01*
X223675343Y-78201039D01*
X223631212Y-78198907D01*
X223596758Y-78193162D01*
X223541070Y-78175638D01*
X223504190Y-78158175D01*
X223483368Y-78150237D01*
X223473782Y-78153656D01*
X223466637Y-78165319D01*
X223462180Y-78186812D01*
X223460837Y-78219235D01*
X223349726Y-78219235D01*
X223349726Y-77320075D01*
X227622047Y-77320075D01*
X227622047Y-78456742D01*
G37*
D13*
X232117333Y-86805137D02*
X232117333Y-88328947D01*
D14*
X236468095Y-83454819D02*
X236468095Y-84264342D01*
X236468095Y-84264342D02*
X236515714Y-84359580D01*
X236515714Y-84359580D02*
X236563333Y-84407200D01*
X236563333Y-84407200D02*
X236658571Y-84454819D01*
X236658571Y-84454819D02*
X236849047Y-84454819D01*
X236849047Y-84454819D02*
X236944285Y-84407200D01*
X236944285Y-84407200D02*
X236991904Y-84359580D01*
X236991904Y-84359580D02*
X237039523Y-84264342D01*
X237039523Y-84264342D02*
X237039523Y-83454819D01*
X238039523Y-84454819D02*
X237468095Y-84454819D01*
X237753809Y-84454819D02*
X237753809Y-83454819D01*
X237753809Y-83454819D02*
X237658571Y-83597676D01*
X237658571Y-83597676D02*
X237563333Y-83692914D01*
X237563333Y-83692914D02*
X237468095Y-83740533D01*
D12*
X235896667Y-87626109D02*
X235896667Y-87126109D01*
X235896667Y-87126109D02*
X236182381Y-87626109D01*
X236182381Y-87626109D02*
X236182381Y-87126109D01*
X236420477Y-87364204D02*
X236587144Y-87364204D01*
X236658572Y-87626109D02*
X236420477Y-87626109D01*
X236420477Y-87626109D02*
X236420477Y-87126109D01*
X236420477Y-87126109D02*
X236658572Y-87126109D01*
X237110953Y-87126109D02*
X236872858Y-87126109D01*
X236872858Y-87126109D02*
X236849049Y-87364204D01*
X236849049Y-87364204D02*
X236872858Y-87340395D01*
X236872858Y-87340395D02*
X236920477Y-87316585D01*
X236920477Y-87316585D02*
X237039525Y-87316585D01*
X237039525Y-87316585D02*
X237087144Y-87340395D01*
X237087144Y-87340395D02*
X237110953Y-87364204D01*
X237110953Y-87364204D02*
X237134763Y-87411823D01*
X237134763Y-87411823D02*
X237134763Y-87530871D01*
X237134763Y-87530871D02*
X237110953Y-87578490D01*
X237110953Y-87578490D02*
X237087144Y-87602300D01*
X237087144Y-87602300D02*
X237039525Y-87626109D01*
X237039525Y-87626109D02*
X236920477Y-87626109D01*
X236920477Y-87626109D02*
X236872858Y-87602300D01*
X236872858Y-87602300D02*
X236849049Y-87578490D01*
X237587143Y-87126109D02*
X237349048Y-87126109D01*
X237349048Y-87126109D02*
X237325239Y-87364204D01*
X237325239Y-87364204D02*
X237349048Y-87340395D01*
X237349048Y-87340395D02*
X237396667Y-87316585D01*
X237396667Y-87316585D02*
X237515715Y-87316585D01*
X237515715Y-87316585D02*
X237563334Y-87340395D01*
X237563334Y-87340395D02*
X237587143Y-87364204D01*
X237587143Y-87364204D02*
X237610953Y-87411823D01*
X237610953Y-87411823D02*
X237610953Y-87530871D01*
X237610953Y-87530871D02*
X237587143Y-87578490D01*
X237587143Y-87578490D02*
X237563334Y-87602300D01*
X237563334Y-87602300D02*
X237515715Y-87626109D01*
X237515715Y-87626109D02*
X237396667Y-87626109D01*
X237396667Y-87626109D02*
X237349048Y-87602300D01*
X237349048Y-87602300D02*
X237325239Y-87578490D01*
X238063333Y-87126109D02*
X237825238Y-87126109D01*
X237825238Y-87126109D02*
X237801429Y-87364204D01*
X237801429Y-87364204D02*
X237825238Y-87340395D01*
X237825238Y-87340395D02*
X237872857Y-87316585D01*
X237872857Y-87316585D02*
X237991905Y-87316585D01*
X237991905Y-87316585D02*
X238039524Y-87340395D01*
X238039524Y-87340395D02*
X238063333Y-87364204D01*
X238063333Y-87364204D02*
X238087143Y-87411823D01*
X238087143Y-87411823D02*
X238087143Y-87530871D01*
X238087143Y-87530871D02*
X238063333Y-87578490D01*
X238063333Y-87578490D02*
X238039524Y-87602300D01*
X238039524Y-87602300D02*
X237991905Y-87626109D01*
X237991905Y-87626109D02*
X237872857Y-87626109D01*
X237872857Y-87626109D02*
X237825238Y-87602300D01*
X237825238Y-87602300D02*
X237801429Y-87578490D01*
X238301428Y-87626109D02*
X238301428Y-87126109D01*
X238301428Y-87126109D02*
X238420476Y-87126109D01*
X238420476Y-87126109D02*
X238491904Y-87149919D01*
X238491904Y-87149919D02*
X238539523Y-87197538D01*
X238539523Y-87197538D02*
X238563333Y-87245157D01*
X238563333Y-87245157D02*
X238587142Y-87340395D01*
X238587142Y-87340395D02*
X238587142Y-87411823D01*
X238587142Y-87411823D02*
X238563333Y-87507061D01*
X238563333Y-87507061D02*
X238539523Y-87554680D01*
X238539523Y-87554680D02*
X238491904Y-87602300D01*
X238491904Y-87602300D02*
X238420476Y-87626109D01*
X238420476Y-87626109D02*
X238301428Y-87626109D01*
D14*
X224864761Y-94454819D02*
X224531428Y-93978628D01*
X224293333Y-94454819D02*
X224293333Y-93454819D01*
X224293333Y-93454819D02*
X224674285Y-93454819D01*
X224674285Y-93454819D02*
X224769523Y-93502438D01*
X224769523Y-93502438D02*
X224817142Y-93550057D01*
X224817142Y-93550057D02*
X224864761Y-93645295D01*
X224864761Y-93645295D02*
X224864761Y-93788152D01*
X224864761Y-93788152D02*
X224817142Y-93883390D01*
X224817142Y-93883390D02*
X224769523Y-93931009D01*
X224769523Y-93931009D02*
X224674285Y-93978628D01*
X224674285Y-93978628D02*
X224293333Y-93978628D01*
X225150476Y-93454819D02*
X225483809Y-94454819D01*
X225483809Y-94454819D02*
X225817142Y-93454819D01*
X226674285Y-94454819D02*
X226102857Y-94454819D01*
X226388571Y-94454819D02*
X226388571Y-93454819D01*
X226388571Y-93454819D02*
X226293333Y-93597676D01*
X226293333Y-93597676D02*
X226198095Y-93692914D01*
X226198095Y-93692914D02*
X226102857Y-93740533D01*
X225431009Y-85130714D02*
X225478628Y-84987857D01*
X225478628Y-84987857D02*
X225526247Y-84940238D01*
X225526247Y-84940238D02*
X225621485Y-84892619D01*
X225621485Y-84892619D02*
X225764342Y-84892619D01*
X225764342Y-84892619D02*
X225859580Y-84940238D01*
X225859580Y-84940238D02*
X225907200Y-84987857D01*
X225907200Y-84987857D02*
X225954819Y-85083095D01*
X225954819Y-85083095D02*
X225954819Y-85464047D01*
X225954819Y-85464047D02*
X224954819Y-85464047D01*
X224954819Y-85464047D02*
X224954819Y-85130714D01*
X224954819Y-85130714D02*
X225002438Y-85035476D01*
X225002438Y-85035476D02*
X225050057Y-84987857D01*
X225050057Y-84987857D02*
X225145295Y-84940238D01*
X225145295Y-84940238D02*
X225240533Y-84940238D01*
X225240533Y-84940238D02*
X225335771Y-84987857D01*
X225335771Y-84987857D02*
X225383390Y-85035476D01*
X225383390Y-85035476D02*
X225431009Y-85130714D01*
X225431009Y-85130714D02*
X225431009Y-85464047D01*
X224954819Y-84606904D02*
X224954819Y-84035476D01*
X225954819Y-84321190D02*
X224954819Y-84321190D01*
X225954819Y-83178333D02*
X225954819Y-83749761D01*
X225954819Y-83464047D02*
X224954819Y-83464047D01*
X224954819Y-83464047D02*
X225097676Y-83559285D01*
X225097676Y-83559285D02*
X225192914Y-83654523D01*
X225192914Y-83654523D02*
X225240533Y-83749761D01*
D12*
X236301429Y-77714204D02*
X236372857Y-77738014D01*
X236372857Y-77738014D02*
X236396667Y-77761823D01*
X236396667Y-77761823D02*
X236420476Y-77809442D01*
X236420476Y-77809442D02*
X236420476Y-77880871D01*
X236420476Y-77880871D02*
X236396667Y-77928490D01*
X236396667Y-77928490D02*
X236372857Y-77952300D01*
X236372857Y-77952300D02*
X236325238Y-77976109D01*
X236325238Y-77976109D02*
X236134762Y-77976109D01*
X236134762Y-77976109D02*
X236134762Y-77476109D01*
X236134762Y-77476109D02*
X236301429Y-77476109D01*
X236301429Y-77476109D02*
X236349048Y-77499919D01*
X236349048Y-77499919D02*
X236372857Y-77523728D01*
X236372857Y-77523728D02*
X236396667Y-77571347D01*
X236396667Y-77571347D02*
X236396667Y-77618966D01*
X236396667Y-77618966D02*
X236372857Y-77666585D01*
X236372857Y-77666585D02*
X236349048Y-77690395D01*
X236349048Y-77690395D02*
X236301429Y-77714204D01*
X236301429Y-77714204D02*
X236134762Y-77714204D01*
X236920476Y-77928490D02*
X236896667Y-77952300D01*
X236896667Y-77952300D02*
X236825238Y-77976109D01*
X236825238Y-77976109D02*
X236777619Y-77976109D01*
X236777619Y-77976109D02*
X236706191Y-77952300D01*
X236706191Y-77952300D02*
X236658572Y-77904680D01*
X236658572Y-77904680D02*
X236634762Y-77857061D01*
X236634762Y-77857061D02*
X236610953Y-77761823D01*
X236610953Y-77761823D02*
X236610953Y-77690395D01*
X236610953Y-77690395D02*
X236634762Y-77595157D01*
X236634762Y-77595157D02*
X236658572Y-77547538D01*
X236658572Y-77547538D02*
X236706191Y-77499919D01*
X236706191Y-77499919D02*
X236777619Y-77476109D01*
X236777619Y-77476109D02*
X236825238Y-77476109D01*
X236825238Y-77476109D02*
X236896667Y-77499919D01*
X236896667Y-77499919D02*
X236920476Y-77523728D01*
X237372857Y-77476109D02*
X237134762Y-77476109D01*
X237134762Y-77476109D02*
X237110953Y-77714204D01*
X237110953Y-77714204D02*
X237134762Y-77690395D01*
X237134762Y-77690395D02*
X237182381Y-77666585D01*
X237182381Y-77666585D02*
X237301429Y-77666585D01*
X237301429Y-77666585D02*
X237349048Y-77690395D01*
X237349048Y-77690395D02*
X237372857Y-77714204D01*
X237372857Y-77714204D02*
X237396667Y-77761823D01*
X237396667Y-77761823D02*
X237396667Y-77880871D01*
X237396667Y-77880871D02*
X237372857Y-77928490D01*
X237372857Y-77928490D02*
X237349048Y-77952300D01*
X237349048Y-77952300D02*
X237301429Y-77976109D01*
X237301429Y-77976109D02*
X237182381Y-77976109D01*
X237182381Y-77976109D02*
X237134762Y-77952300D01*
X237134762Y-77952300D02*
X237110953Y-77928490D01*
X237825238Y-77642776D02*
X237825238Y-77976109D01*
X237706190Y-77452300D02*
X237587143Y-77809442D01*
X237587143Y-77809442D02*
X237896666Y-77809442D01*
X238039523Y-77476109D02*
X238372856Y-77476109D01*
X238372856Y-77476109D02*
X238158571Y-77976109D01*
X234666666Y-95678490D02*
X234642857Y-95702300D01*
X234642857Y-95702300D02*
X234571428Y-95726109D01*
X234571428Y-95726109D02*
X234523809Y-95726109D01*
X234523809Y-95726109D02*
X234452381Y-95702300D01*
X234452381Y-95702300D02*
X234404762Y-95654680D01*
X234404762Y-95654680D02*
X234380952Y-95607061D01*
X234380952Y-95607061D02*
X234357143Y-95511823D01*
X234357143Y-95511823D02*
X234357143Y-95440395D01*
X234357143Y-95440395D02*
X234380952Y-95345157D01*
X234380952Y-95345157D02*
X234404762Y-95297538D01*
X234404762Y-95297538D02*
X234452381Y-95249919D01*
X234452381Y-95249919D02*
X234523809Y-95226109D01*
X234523809Y-95226109D02*
X234571428Y-95226109D01*
X234571428Y-95226109D02*
X234642857Y-95249919D01*
X234642857Y-95249919D02*
X234666666Y-95273728D01*
X235142857Y-95726109D02*
X234857143Y-95726109D01*
X235000000Y-95726109D02*
X235000000Y-95226109D01*
X235000000Y-95226109D02*
X234952381Y-95297538D01*
X234952381Y-95297538D02*
X234904762Y-95345157D01*
X234904762Y-95345157D02*
X234857143Y-95368966D01*
X235500002Y-89523728D02*
X235523811Y-89499919D01*
X235523811Y-89499919D02*
X235571430Y-89476109D01*
X235571430Y-89476109D02*
X235690478Y-89476109D01*
X235690478Y-89476109D02*
X235738097Y-89499919D01*
X235738097Y-89499919D02*
X235761906Y-89523728D01*
X235761906Y-89523728D02*
X235785716Y-89571347D01*
X235785716Y-89571347D02*
X235785716Y-89618966D01*
X235785716Y-89618966D02*
X235761906Y-89690395D01*
X235761906Y-89690395D02*
X235476192Y-89976109D01*
X235476192Y-89976109D02*
X235785716Y-89976109D01*
X236238096Y-89476109D02*
X236000001Y-89476109D01*
X236000001Y-89476109D02*
X235976192Y-89714204D01*
X235976192Y-89714204D02*
X236000001Y-89690395D01*
X236000001Y-89690395D02*
X236047620Y-89666585D01*
X236047620Y-89666585D02*
X236166668Y-89666585D01*
X236166668Y-89666585D02*
X236214287Y-89690395D01*
X236214287Y-89690395D02*
X236238096Y-89714204D01*
X236238096Y-89714204D02*
X236261906Y-89761823D01*
X236261906Y-89761823D02*
X236261906Y-89880871D01*
X236261906Y-89880871D02*
X236238096Y-89928490D01*
X236238096Y-89928490D02*
X236214287Y-89952300D01*
X236214287Y-89952300D02*
X236166668Y-89976109D01*
X236166668Y-89976109D02*
X236047620Y-89976109D01*
X236047620Y-89976109D02*
X236000001Y-89952300D01*
X236000001Y-89952300D02*
X235976192Y-89928490D01*
X236404763Y-89476109D02*
X236571429Y-89976109D01*
X236571429Y-89976109D02*
X236738096Y-89476109D01*
X237166667Y-89976109D02*
X236880953Y-89976109D01*
X237023810Y-89976109D02*
X237023810Y-89476109D01*
X237023810Y-89476109D02*
X236976191Y-89547538D01*
X236976191Y-89547538D02*
X236928572Y-89595157D01*
X236928572Y-89595157D02*
X236880953Y-89618966D01*
X237476190Y-89476109D02*
X237523809Y-89476109D01*
X237523809Y-89476109D02*
X237571428Y-89499919D01*
X237571428Y-89499919D02*
X237595238Y-89523728D01*
X237595238Y-89523728D02*
X237619047Y-89571347D01*
X237619047Y-89571347D02*
X237642857Y-89666585D01*
X237642857Y-89666585D02*
X237642857Y-89785633D01*
X237642857Y-89785633D02*
X237619047Y-89880871D01*
X237619047Y-89880871D02*
X237595238Y-89928490D01*
X237595238Y-89928490D02*
X237571428Y-89952300D01*
X237571428Y-89952300D02*
X237523809Y-89976109D01*
X237523809Y-89976109D02*
X237476190Y-89976109D01*
X237476190Y-89976109D02*
X237428571Y-89952300D01*
X237428571Y-89952300D02*
X237404762Y-89928490D01*
X237404762Y-89928490D02*
X237380952Y-89880871D01*
X237380952Y-89880871D02*
X237357143Y-89785633D01*
X237357143Y-89785633D02*
X237357143Y-89666585D01*
X237357143Y-89666585D02*
X237380952Y-89571347D01*
X237380952Y-89571347D02*
X237404762Y-89523728D01*
X237404762Y-89523728D02*
X237428571Y-89499919D01*
X237428571Y-89499919D02*
X237476190Y-89476109D01*
X237952380Y-89476109D02*
X237999999Y-89476109D01*
X237999999Y-89476109D02*
X238047618Y-89499919D01*
X238047618Y-89499919D02*
X238071428Y-89523728D01*
X238071428Y-89523728D02*
X238095237Y-89571347D01*
X238095237Y-89571347D02*
X238119047Y-89666585D01*
X238119047Y-89666585D02*
X238119047Y-89785633D01*
X238119047Y-89785633D02*
X238095237Y-89880871D01*
X238095237Y-89880871D02*
X238071428Y-89928490D01*
X238071428Y-89928490D02*
X238047618Y-89952300D01*
X238047618Y-89952300D02*
X237999999Y-89976109D01*
X237999999Y-89976109D02*
X237952380Y-89976109D01*
X237952380Y-89976109D02*
X237904761Y-89952300D01*
X237904761Y-89952300D02*
X237880952Y-89928490D01*
X237880952Y-89928490D02*
X237857142Y-89880871D01*
X237857142Y-89880871D02*
X237833333Y-89785633D01*
X237833333Y-89785633D02*
X237833333Y-89666585D01*
X237833333Y-89666585D02*
X237857142Y-89571347D01*
X237857142Y-89571347D02*
X237880952Y-89523728D01*
X237880952Y-89523728D02*
X237904761Y-89499919D01*
X237904761Y-89499919D02*
X237952380Y-89476109D01*
X238547618Y-89642776D02*
X238547618Y-89976109D01*
X238333332Y-89642776D02*
X238333332Y-89904680D01*
X238333332Y-89904680D02*
X238357142Y-89952300D01*
X238357142Y-89952300D02*
X238404761Y-89976109D01*
X238404761Y-89976109D02*
X238476189Y-89976109D01*
X238476189Y-89976109D02*
X238523808Y-89952300D01*
X238523808Y-89952300D02*
X238547618Y-89928490D01*
X238952380Y-89714204D02*
X238785713Y-89714204D01*
X238785713Y-89976109D02*
X238785713Y-89476109D01*
X238785713Y-89476109D02*
X239023808Y-89476109D01*
D15*
%TO.C,D1*%
X248790000Y-78595000D02*
X248790000Y-75505000D01*
X243240000Y-77050000D02*
G75*
G02*
X248790000Y-75505170I2990000J0D01*
G01*
X248790000Y-78594830D02*
G75*
G02*
X243240000Y-77050000I-2560000J1544830D01*
G01*
X248730000Y-77050000D02*
G75*
G02*
X243730000Y-77050000I-2500000J0D01*
G01*
X243730000Y-77050000D02*
G75*
G02*
X248730000Y-77050000I2500000J0D01*
G01*
%TO.C,D3*%
X248740000Y-93825000D02*
X248740000Y-90735000D01*
X243190000Y-92280000D02*
G75*
G02*
X248740000Y-90735170I2990000J0D01*
G01*
X248740000Y-93824830D02*
G75*
G02*
X243190000Y-92280000I-2560000J1544830D01*
G01*
X248680000Y-92280000D02*
G75*
G02*
X243680000Y-92280000I-2500000J0D01*
G01*
X243680000Y-92280000D02*
G75*
G02*
X248680000Y-92280000I2500000J0D01*
G01*
%TO.C,U1*%
X235170000Y-81440000D02*
X239290000Y-81440000D01*
X235170000Y-81535000D02*
X235170000Y-81440000D01*
X235170000Y-86560000D02*
X235170000Y-86465000D01*
X239290000Y-81440000D02*
X239290000Y-81535000D01*
X239290000Y-86465000D02*
X239290000Y-86560000D01*
X239290000Y-86560000D02*
X235170000Y-86560000D01*
X234630000Y-81530000D02*
X234390000Y-81200000D01*
X234870000Y-81200000D01*
X234630000Y-81530000D01*
G36*
X234630000Y-81530000D02*
G01*
X234390000Y-81200000D01*
X234870000Y-81200000D01*
X234630000Y-81530000D01*
G37*
%TO.C,RV1*%
X220585000Y-91200000D02*
X230335000Y-91200000D01*
X220585000Y-96250000D02*
X220585000Y-91200000D01*
X230335000Y-91200000D02*
X230335000Y-96250000D01*
X230335000Y-96250000D02*
X220585000Y-96250000D01*
%TO.C,BT1*%
X220607500Y-79140000D02*
X230647500Y-79140000D01*
X220607500Y-81500000D02*
X220607500Y-79140000D01*
X220607500Y-89540000D02*
X220607500Y-82100000D01*
X221227500Y-79140000D02*
X221227500Y-89540000D01*
X222727500Y-79140000D02*
X222727500Y-89540000D01*
X227627500Y-79140000D02*
X227627500Y-89540000D01*
X230647500Y-79140000D02*
X230647500Y-89540000D01*
X230647500Y-89540000D02*
X220607500Y-89540000D01*
X220607500Y-81800000D02*
X219997500Y-82240000D01*
X219997500Y-81360000D01*
X220607500Y-81800000D01*
G36*
X220607500Y-81800000D02*
G01*
X219997500Y-82240000D01*
X219997500Y-81360000D01*
X220607500Y-81800000D01*
G37*
%TO.C,D2*%
X248740000Y-86155000D02*
X248740000Y-83065000D01*
X243190000Y-84610000D02*
G75*
G02*
X248740000Y-83065170I2990000J0D01*
G01*
X248740000Y-86154830D02*
G75*
G02*
X243190000Y-84610000I-2560000J1544830D01*
G01*
X248680000Y-84610000D02*
G75*
G02*
X243680000Y-84610000I-2500000J0D01*
G01*
X243680000Y-84610000D02*
G75*
G02*
X248680000Y-84610000I2500000J0D01*
G01*
%TO.C,Q1*%
X235430000Y-77100000D02*
X239030000Y-77100000D01*
X235391522Y-77088478D02*
G75*
G02*
X237230000Y-72649999I1838478J1838478D01*
G01*
X237230000Y-72650000D02*
G75*
G02*
X239068478Y-77088478I0J-2600000D01*
G01*
%TO.C,C1*%
X236190000Y-93044888D02*
X234650000Y-93044888D01*
X236190000Y-93084888D02*
X234650000Y-93084888D01*
X236190000Y-93124888D02*
X234651000Y-93124888D01*
X236190000Y-93164888D02*
X234653000Y-93164888D01*
X236190000Y-93204888D02*
X234655000Y-93204888D01*
X236190000Y-93244888D02*
X234658000Y-93244888D01*
X236190000Y-93284888D02*
X234661000Y-93284888D01*
X236190000Y-93324888D02*
X234665000Y-93324888D01*
X236190000Y-93364888D02*
X234670000Y-93364888D01*
X236190000Y-93404888D02*
X234675000Y-93404888D01*
X236190000Y-93444888D02*
X234681000Y-93444888D01*
X236190000Y-93484888D02*
X234687000Y-93484888D01*
X236190000Y-93524888D02*
X234694000Y-93524888D01*
X236190000Y-93564888D02*
X234702000Y-93564888D01*
X236190000Y-93604888D02*
X234711000Y-93604888D01*
X236190000Y-93644888D02*
X234720000Y-93644888D01*
X236190000Y-93684888D02*
X234729000Y-93684888D01*
X236190000Y-93724888D02*
X234740000Y-93724888D01*
X236190000Y-93764888D02*
X234751000Y-93764888D01*
X236190000Y-93804888D02*
X234763000Y-93804888D01*
X236190000Y-93844888D02*
X234775000Y-93844888D01*
X236190000Y-93884888D02*
X234788000Y-93884888D01*
X236190000Y-93924888D02*
X234802000Y-93924888D01*
X236190000Y-93964888D02*
X234817000Y-93964888D01*
X236190000Y-94004888D02*
X234832000Y-94004888D01*
X236190000Y-94044888D02*
X234848000Y-94044888D01*
X236190000Y-94084888D02*
X234865000Y-94084888D01*
X236190000Y-94124888D02*
X234883000Y-94124888D01*
X236190000Y-94164888D02*
X234901000Y-94164888D01*
X236190000Y-94204888D02*
X234921000Y-94204888D01*
X236190000Y-94244888D02*
X234941000Y-94244888D01*
X236190000Y-94284888D02*
X234962000Y-94284888D01*
X236190000Y-94324888D02*
X234984000Y-94324888D01*
X236190000Y-94364888D02*
X235007000Y-94364888D01*
X236190000Y-94404888D02*
X235031000Y-94404888D01*
X236190000Y-94444888D02*
X235055000Y-94444888D01*
X236190000Y-94484888D02*
X235081000Y-94484888D01*
X236190000Y-94524888D02*
X235108000Y-94524888D01*
X236190000Y-94564888D02*
X235136000Y-94564888D01*
X236190000Y-94604888D02*
X235165000Y-94604888D01*
X236190000Y-94644888D02*
X235195000Y-94644888D01*
X236190000Y-94684888D02*
X235227000Y-94684888D01*
X236190000Y-94724888D02*
X235260000Y-94724888D01*
X236190000Y-94764888D02*
X235294000Y-94764888D01*
X236190000Y-94804888D02*
X235329000Y-94804888D01*
X236190000Y-94844888D02*
X235366000Y-94844888D01*
X236190000Y-94884888D02*
X235405000Y-94884888D01*
X236190000Y-94924888D02*
X235445000Y-94924888D01*
X236190000Y-94964888D02*
X235487000Y-94964888D01*
X236190000Y-95004888D02*
X235531000Y-95004888D01*
X236190000Y-95044888D02*
X235578000Y-95044888D01*
X237513000Y-95644888D02*
X236947000Y-95644888D01*
X237747000Y-95604888D02*
X236713000Y-95604888D01*
X237907000Y-95564888D02*
X236553000Y-95564888D01*
X238035000Y-95524888D02*
X236425000Y-95524888D01*
X238144000Y-95484888D02*
X236316000Y-95484888D01*
X238241000Y-95444888D02*
X236219000Y-95444888D01*
X238328000Y-95404888D02*
X236132000Y-95404888D01*
X238407000Y-95364888D02*
X236053000Y-95364888D01*
X238481000Y-95324888D02*
X235979000Y-95324888D01*
X238549000Y-95284888D02*
X235911000Y-95284888D01*
X238613000Y-95244888D02*
X235847000Y-95244888D01*
X238673000Y-95204888D02*
X235787000Y-95204888D01*
X238705000Y-90240113D02*
X238705000Y-90740113D01*
X238729000Y-95164888D02*
X235731000Y-95164888D01*
X238783000Y-95124888D02*
X235677000Y-95124888D01*
X238834000Y-95084888D02*
X235626000Y-95084888D01*
X238882000Y-95044888D02*
X238270000Y-95044888D01*
X238929000Y-95004888D02*
X238270000Y-95004888D01*
X238955000Y-90490113D02*
X238455000Y-90490113D01*
X238973000Y-94964888D02*
X238270000Y-94964888D01*
X239015000Y-94924888D02*
X238270000Y-94924888D01*
X239055000Y-94884888D02*
X238270000Y-94884888D01*
X239094000Y-94844888D02*
X238270000Y-94844888D01*
X239131000Y-94804888D02*
X238270000Y-94804888D01*
X239166000Y-94764888D02*
X238270000Y-94764888D01*
X239200000Y-94724888D02*
X238270000Y-94724888D01*
X239233000Y-94684888D02*
X238270000Y-94684888D01*
X239265000Y-94644888D02*
X238270000Y-94644888D01*
X239295000Y-94604888D02*
X238270000Y-94604888D01*
X239324000Y-94564888D02*
X238270000Y-94564888D01*
X239352000Y-94524888D02*
X238270000Y-94524888D01*
X239379000Y-94484888D02*
X238270000Y-94484888D01*
X239405000Y-94444888D02*
X238270000Y-94444888D01*
X239429000Y-94404888D02*
X238270000Y-94404888D01*
X239453000Y-94364888D02*
X238270000Y-94364888D01*
X239476000Y-94324888D02*
X238270000Y-94324888D01*
X239498000Y-94284888D02*
X238270000Y-94284888D01*
X239519000Y-94244888D02*
X238270000Y-94244888D01*
X239539000Y-94204888D02*
X238270000Y-94204888D01*
X239559000Y-94164888D02*
X238270000Y-94164888D01*
X239577000Y-94124888D02*
X238270000Y-94124888D01*
X239595000Y-94084888D02*
X238270000Y-94084888D01*
X239612000Y-94044888D02*
X238270000Y-94044888D01*
X239628000Y-94004888D02*
X238270000Y-94004888D01*
X239643000Y-93964888D02*
X238270000Y-93964888D01*
X239658000Y-93924888D02*
X238270000Y-93924888D01*
X239672000Y-93884888D02*
X238270000Y-93884888D01*
X239685000Y-93844888D02*
X238270000Y-93844888D01*
X239697000Y-93804888D02*
X238270000Y-93804888D01*
X239709000Y-93764888D02*
X238270000Y-93764888D01*
X239720000Y-93724888D02*
X238270000Y-93724888D01*
X239731000Y-93684888D02*
X238270000Y-93684888D01*
X239740000Y-93644888D02*
X238270000Y-93644888D01*
X239749000Y-93604888D02*
X238270000Y-93604888D01*
X239758000Y-93564888D02*
X238270000Y-93564888D01*
X239766000Y-93524888D02*
X238270000Y-93524888D01*
X239773000Y-93484888D02*
X238270000Y-93484888D01*
X239779000Y-93444888D02*
X238270000Y-93444888D01*
X239785000Y-93404888D02*
X238270000Y-93404888D01*
X239790000Y-93364888D02*
X238270000Y-93364888D01*
X239795000Y-93324888D02*
X238270000Y-93324888D01*
X239799000Y-93284888D02*
X238270000Y-93284888D01*
X239802000Y-93244888D02*
X238270000Y-93244888D01*
X239805000Y-93204888D02*
X238270000Y-93204888D01*
X239807000Y-93164888D02*
X238270000Y-93164888D01*
X239809000Y-93124888D02*
X238270000Y-93124888D01*
X239810000Y-93044888D02*
X238270000Y-93044888D01*
X239810000Y-93084888D02*
X238270000Y-93084888D01*
X239850000Y-93044888D02*
G75*
G02*
X234610000Y-93044888I-2620000J0D01*
G01*
X234610000Y-93044888D02*
G75*
G02*
X239850000Y-93044888I2620000J0D01*
G01*
%TD*%
G36*
X227838297Y-77019685D02*
G01*
X227884052Y-77072489D01*
X227895258Y-77124000D01*
X227895258Y-78626000D01*
X227875573Y-78693039D01*
X227822769Y-78738794D01*
X227771258Y-78750000D01*
X223019258Y-78750000D01*
X222952219Y-78730315D01*
X222906464Y-78677511D01*
X222895258Y-78626000D01*
X222895258Y-78350619D01*
X223455838Y-78350619D01*
X227515936Y-78350619D01*
X227515936Y-77426196D01*
X223455838Y-77426196D01*
X223455838Y-78350619D01*
X222895258Y-78350619D01*
X222895258Y-77124000D01*
X222914943Y-77056961D01*
X222967747Y-77011206D01*
X223019258Y-77000000D01*
X227771258Y-77000000D01*
X227838297Y-77019685D01*
G37*
M02*
