%TF.GenerationSoftware,KiCad,Pcbnew,9.0.6*%
%TF.CreationDate,2025-11-19T16:31:42+08:00*%
%TF.ProjectId,LED-Dimmer,4c45442d-4469-46d6-9d65-722e6b696361,rev?*%
%TF.SameCoordinates,Original*%
%TF.FileFunction,Drillmap*%
%TF.FilePolarity,Positive*%
%FSLAX45Y45*%
G04 Gerber Fmt 4.5, Leading zero omitted, Abs format (unit mm)*
G04 Created by KiCad (PCBNEW 9.0.6) date 2025-11-19 16:31:42*
%MOMM*%
%LPD*%
G01*
G04 APERTURE LIST*
%ADD10C,0.050000*%
%ADD11C,0.200000*%
%ADD12C,0.210000*%
G04 APERTURE END LIST*
D10*
X22000000Y-7195000D02*
X25100000Y-7195000D01*
X25100000Y-9695000D01*
X22000000Y-9695000D01*
X22000000Y-7195000D01*
D11*
D12*
X22125000Y-7325000D02*
X22335000Y-7535000D01*
X22335000Y-7325000D02*
X22125000Y-7535000D01*
D11*
X22258277Y-10008984D02*
X22258277Y-9808984D01*
X22258277Y-9808984D02*
X22305896Y-9808984D01*
X22305896Y-9808984D02*
X22334467Y-9818508D01*
X22334467Y-9818508D02*
X22353515Y-9837555D01*
X22353515Y-9837555D02*
X22363039Y-9856603D01*
X22363039Y-9856603D02*
X22372562Y-9894698D01*
X22372562Y-9894698D02*
X22372562Y-9923270D01*
X22372562Y-9923270D02*
X22363039Y-9961365D01*
X22363039Y-9961365D02*
X22353515Y-9980412D01*
X22353515Y-9980412D02*
X22334467Y-9999460D01*
X22334467Y-9999460D02*
X22305896Y-10008984D01*
X22305896Y-10008984D02*
X22258277Y-10008984D01*
X22458277Y-10008984D02*
X22458277Y-9875650D01*
X22458277Y-9913746D02*
X22467801Y-9894698D01*
X22467801Y-9894698D02*
X22477324Y-9885174D01*
X22477324Y-9885174D02*
X22496372Y-9875650D01*
X22496372Y-9875650D02*
X22515420Y-9875650D01*
X22582086Y-10008984D02*
X22582086Y-9875650D01*
X22582086Y-9808984D02*
X22572562Y-9818508D01*
X22572562Y-9818508D02*
X22582086Y-9828031D01*
X22582086Y-9828031D02*
X22591610Y-9818508D01*
X22591610Y-9818508D02*
X22582086Y-9808984D01*
X22582086Y-9808984D02*
X22582086Y-9828031D01*
X22705896Y-10008984D02*
X22686848Y-9999460D01*
X22686848Y-9999460D02*
X22677324Y-9980412D01*
X22677324Y-9980412D02*
X22677324Y-9808984D01*
X22810658Y-10008984D02*
X22791610Y-9999460D01*
X22791610Y-9999460D02*
X22782086Y-9980412D01*
X22782086Y-9980412D02*
X22782086Y-9808984D01*
X23039229Y-10008984D02*
X23039229Y-9808984D01*
X23039229Y-9808984D02*
X23105896Y-9951841D01*
X23105896Y-9951841D02*
X23172562Y-9808984D01*
X23172562Y-9808984D02*
X23172562Y-10008984D01*
X23353515Y-10008984D02*
X23353515Y-9904222D01*
X23353515Y-9904222D02*
X23343991Y-9885174D01*
X23343991Y-9885174D02*
X23324943Y-9875650D01*
X23324943Y-9875650D02*
X23286848Y-9875650D01*
X23286848Y-9875650D02*
X23267801Y-9885174D01*
X23353515Y-9999460D02*
X23334467Y-10008984D01*
X23334467Y-10008984D02*
X23286848Y-10008984D01*
X23286848Y-10008984D02*
X23267801Y-9999460D01*
X23267801Y-9999460D02*
X23258277Y-9980412D01*
X23258277Y-9980412D02*
X23258277Y-9961365D01*
X23258277Y-9961365D02*
X23267801Y-9942317D01*
X23267801Y-9942317D02*
X23286848Y-9932793D01*
X23286848Y-9932793D02*
X23334467Y-9932793D01*
X23334467Y-9932793D02*
X23353515Y-9923270D01*
X23448753Y-9875650D02*
X23448753Y-10075650D01*
X23448753Y-9885174D02*
X23467801Y-9875650D01*
X23467801Y-9875650D02*
X23505896Y-9875650D01*
X23505896Y-9875650D02*
X23524943Y-9885174D01*
X23524943Y-9885174D02*
X23534467Y-9894698D01*
X23534467Y-9894698D02*
X23543991Y-9913746D01*
X23543991Y-9913746D02*
X23543991Y-9970889D01*
X23543991Y-9970889D02*
X23534467Y-9989936D01*
X23534467Y-9989936D02*
X23524943Y-9999460D01*
X23524943Y-9999460D02*
X23505896Y-10008984D01*
X23505896Y-10008984D02*
X23467801Y-10008984D01*
X23467801Y-10008984D02*
X23448753Y-9999460D01*
X23629705Y-9989936D02*
X23639229Y-9999460D01*
X23639229Y-9999460D02*
X23629705Y-10008984D01*
X23629705Y-10008984D02*
X23620182Y-9999460D01*
X23620182Y-9999460D02*
X23629705Y-9989936D01*
X23629705Y-9989936D02*
X23629705Y-10008984D01*
X23629705Y-9885174D02*
X23639229Y-9894698D01*
X23639229Y-9894698D02*
X23629705Y-9904222D01*
X23629705Y-9904222D02*
X23620182Y-9894698D01*
X23620182Y-9894698D02*
X23629705Y-9885174D01*
X23629705Y-9885174D02*
X23629705Y-9904222D01*
X21797500Y-10237500D02*
X21997500Y-10437500D01*
X21997500Y-10237500D02*
X21797500Y-10437500D01*
X22248753Y-10248031D02*
X22258277Y-10238508D01*
X22258277Y-10238508D02*
X22277324Y-10228984D01*
X22277324Y-10228984D02*
X22324944Y-10228984D01*
X22324944Y-10228984D02*
X22343991Y-10238508D01*
X22343991Y-10238508D02*
X22353515Y-10248031D01*
X22353515Y-10248031D02*
X22363039Y-10267079D01*
X22363039Y-10267079D02*
X22363039Y-10286127D01*
X22363039Y-10286127D02*
X22353515Y-10314698D01*
X22353515Y-10314698D02*
X22239229Y-10428984D01*
X22239229Y-10428984D02*
X22363039Y-10428984D01*
X22448753Y-10409936D02*
X22458277Y-10419460D01*
X22458277Y-10419460D02*
X22448753Y-10428984D01*
X22448753Y-10428984D02*
X22439229Y-10419460D01*
X22439229Y-10419460D02*
X22448753Y-10409936D01*
X22448753Y-10409936D02*
X22448753Y-10428984D01*
X22648753Y-10428984D02*
X22534467Y-10428984D01*
X22591610Y-10428984D02*
X22591610Y-10228984D01*
X22591610Y-10228984D02*
X22572562Y-10257555D01*
X22572562Y-10257555D02*
X22553515Y-10276603D01*
X22553515Y-10276603D02*
X22534467Y-10286127D01*
X22772562Y-10228984D02*
X22791610Y-10228984D01*
X22791610Y-10228984D02*
X22810658Y-10238508D01*
X22810658Y-10238508D02*
X22820182Y-10248031D01*
X22820182Y-10248031D02*
X22829705Y-10267079D01*
X22829705Y-10267079D02*
X22839229Y-10305174D01*
X22839229Y-10305174D02*
X22839229Y-10352793D01*
X22839229Y-10352793D02*
X22829705Y-10390889D01*
X22829705Y-10390889D02*
X22820182Y-10409936D01*
X22820182Y-10409936D02*
X22810658Y-10419460D01*
X22810658Y-10419460D02*
X22791610Y-10428984D01*
X22791610Y-10428984D02*
X22772562Y-10428984D01*
X22772562Y-10428984D02*
X22753515Y-10419460D01*
X22753515Y-10419460D02*
X22743991Y-10409936D01*
X22743991Y-10409936D02*
X22734467Y-10390889D01*
X22734467Y-10390889D02*
X22724943Y-10352793D01*
X22724943Y-10352793D02*
X22724943Y-10305174D01*
X22724943Y-10305174D02*
X22734467Y-10267079D01*
X22734467Y-10267079D02*
X22743991Y-10248031D01*
X22743991Y-10248031D02*
X22753515Y-10238508D01*
X22753515Y-10238508D02*
X22772562Y-10228984D01*
X22963039Y-10228984D02*
X22982086Y-10228984D01*
X22982086Y-10228984D02*
X23001134Y-10238508D01*
X23001134Y-10238508D02*
X23010658Y-10248031D01*
X23010658Y-10248031D02*
X23020182Y-10267079D01*
X23020182Y-10267079D02*
X23029705Y-10305174D01*
X23029705Y-10305174D02*
X23029705Y-10352793D01*
X23029705Y-10352793D02*
X23020182Y-10390889D01*
X23020182Y-10390889D02*
X23010658Y-10409936D01*
X23010658Y-10409936D02*
X23001134Y-10419460D01*
X23001134Y-10419460D02*
X22982086Y-10428984D01*
X22982086Y-10428984D02*
X22963039Y-10428984D01*
X22963039Y-10428984D02*
X22943991Y-10419460D01*
X22943991Y-10419460D02*
X22934467Y-10409936D01*
X22934467Y-10409936D02*
X22924943Y-10390889D01*
X22924943Y-10390889D02*
X22915420Y-10352793D01*
X22915420Y-10352793D02*
X22915420Y-10305174D01*
X22915420Y-10305174D02*
X22924943Y-10267079D01*
X22924943Y-10267079D02*
X22934467Y-10248031D01*
X22934467Y-10248031D02*
X22943991Y-10238508D01*
X22943991Y-10238508D02*
X22963039Y-10228984D01*
X23115420Y-10428984D02*
X23115420Y-10295650D01*
X23115420Y-10314698D02*
X23124943Y-10305174D01*
X23124943Y-10305174D02*
X23143991Y-10295650D01*
X23143991Y-10295650D02*
X23172563Y-10295650D01*
X23172563Y-10295650D02*
X23191610Y-10305174D01*
X23191610Y-10305174D02*
X23201134Y-10324222D01*
X23201134Y-10324222D02*
X23201134Y-10428984D01*
X23201134Y-10324222D02*
X23210658Y-10305174D01*
X23210658Y-10305174D02*
X23229705Y-10295650D01*
X23229705Y-10295650D02*
X23258277Y-10295650D01*
X23258277Y-10295650D02*
X23277324Y-10305174D01*
X23277324Y-10305174D02*
X23286848Y-10324222D01*
X23286848Y-10324222D02*
X23286848Y-10428984D01*
X23382086Y-10428984D02*
X23382086Y-10295650D01*
X23382086Y-10314698D02*
X23391610Y-10305174D01*
X23391610Y-10305174D02*
X23410658Y-10295650D01*
X23410658Y-10295650D02*
X23439229Y-10295650D01*
X23439229Y-10295650D02*
X23458277Y-10305174D01*
X23458277Y-10305174D02*
X23467801Y-10324222D01*
X23467801Y-10324222D02*
X23467801Y-10428984D01*
X23467801Y-10324222D02*
X23477324Y-10305174D01*
X23477324Y-10305174D02*
X23496372Y-10295650D01*
X23496372Y-10295650D02*
X23524943Y-10295650D01*
X23524943Y-10295650D02*
X23543991Y-10305174D01*
X23543991Y-10305174D02*
X23553515Y-10324222D01*
X23553515Y-10324222D02*
X23553515Y-10428984D01*
X23943991Y-10219460D02*
X23772563Y-10476603D01*
X24201134Y-10228984D02*
X24220182Y-10228984D01*
X24220182Y-10228984D02*
X24239229Y-10238508D01*
X24239229Y-10238508D02*
X24248753Y-10248031D01*
X24248753Y-10248031D02*
X24258277Y-10267079D01*
X24258277Y-10267079D02*
X24267801Y-10305174D01*
X24267801Y-10305174D02*
X24267801Y-10352793D01*
X24267801Y-10352793D02*
X24258277Y-10390889D01*
X24258277Y-10390889D02*
X24248753Y-10409936D01*
X24248753Y-10409936D02*
X24239229Y-10419460D01*
X24239229Y-10419460D02*
X24220182Y-10428984D01*
X24220182Y-10428984D02*
X24201134Y-10428984D01*
X24201134Y-10428984D02*
X24182086Y-10419460D01*
X24182086Y-10419460D02*
X24172563Y-10409936D01*
X24172563Y-10409936D02*
X24163039Y-10390889D01*
X24163039Y-10390889D02*
X24153515Y-10352793D01*
X24153515Y-10352793D02*
X24153515Y-10305174D01*
X24153515Y-10305174D02*
X24163039Y-10267079D01*
X24163039Y-10267079D02*
X24172563Y-10248031D01*
X24172563Y-10248031D02*
X24182086Y-10238508D01*
X24182086Y-10238508D02*
X24201134Y-10228984D01*
X24353515Y-10409936D02*
X24363039Y-10419460D01*
X24363039Y-10419460D02*
X24353515Y-10428984D01*
X24353515Y-10428984D02*
X24343991Y-10419460D01*
X24343991Y-10419460D02*
X24353515Y-10409936D01*
X24353515Y-10409936D02*
X24353515Y-10428984D01*
X24486848Y-10228984D02*
X24505896Y-10228984D01*
X24505896Y-10228984D02*
X24524944Y-10238508D01*
X24524944Y-10238508D02*
X24534467Y-10248031D01*
X24534467Y-10248031D02*
X24543991Y-10267079D01*
X24543991Y-10267079D02*
X24553515Y-10305174D01*
X24553515Y-10305174D02*
X24553515Y-10352793D01*
X24553515Y-10352793D02*
X24543991Y-10390889D01*
X24543991Y-10390889D02*
X24534467Y-10409936D01*
X24534467Y-10409936D02*
X24524944Y-10419460D01*
X24524944Y-10419460D02*
X24505896Y-10428984D01*
X24505896Y-10428984D02*
X24486848Y-10428984D01*
X24486848Y-10428984D02*
X24467801Y-10419460D01*
X24467801Y-10419460D02*
X24458277Y-10409936D01*
X24458277Y-10409936D02*
X24448753Y-10390889D01*
X24448753Y-10390889D02*
X24439229Y-10352793D01*
X24439229Y-10352793D02*
X24439229Y-10305174D01*
X24439229Y-10305174D02*
X24448753Y-10267079D01*
X24448753Y-10267079D02*
X24458277Y-10248031D01*
X24458277Y-10248031D02*
X24467801Y-10238508D01*
X24467801Y-10238508D02*
X24486848Y-10228984D01*
X24667801Y-10314698D02*
X24648753Y-10305174D01*
X24648753Y-10305174D02*
X24639229Y-10295650D01*
X24639229Y-10295650D02*
X24629706Y-10276603D01*
X24629706Y-10276603D02*
X24629706Y-10267079D01*
X24629706Y-10267079D02*
X24639229Y-10248031D01*
X24639229Y-10248031D02*
X24648753Y-10238508D01*
X24648753Y-10238508D02*
X24667801Y-10228984D01*
X24667801Y-10228984D02*
X24705896Y-10228984D01*
X24705896Y-10228984D02*
X24724944Y-10238508D01*
X24724944Y-10238508D02*
X24734467Y-10248031D01*
X24734467Y-10248031D02*
X24743991Y-10267079D01*
X24743991Y-10267079D02*
X24743991Y-10276603D01*
X24743991Y-10276603D02*
X24734467Y-10295650D01*
X24734467Y-10295650D02*
X24724944Y-10305174D01*
X24724944Y-10305174D02*
X24705896Y-10314698D01*
X24705896Y-10314698D02*
X24667801Y-10314698D01*
X24667801Y-10314698D02*
X24648753Y-10324222D01*
X24648753Y-10324222D02*
X24639229Y-10333746D01*
X24639229Y-10333746D02*
X24629706Y-10352793D01*
X24629706Y-10352793D02*
X24629706Y-10390889D01*
X24629706Y-10390889D02*
X24639229Y-10409936D01*
X24639229Y-10409936D02*
X24648753Y-10419460D01*
X24648753Y-10419460D02*
X24667801Y-10428984D01*
X24667801Y-10428984D02*
X24705896Y-10428984D01*
X24705896Y-10428984D02*
X24724944Y-10419460D01*
X24724944Y-10419460D02*
X24734467Y-10409936D01*
X24734467Y-10409936D02*
X24743991Y-10390889D01*
X24743991Y-10390889D02*
X24743991Y-10352793D01*
X24743991Y-10352793D02*
X24734467Y-10333746D01*
X24734467Y-10333746D02*
X24724944Y-10324222D01*
X24724944Y-10324222D02*
X24705896Y-10314698D01*
X24820182Y-10248031D02*
X24829706Y-10238508D01*
X24829706Y-10238508D02*
X24848753Y-10228984D01*
X24848753Y-10228984D02*
X24896372Y-10228984D01*
X24896372Y-10228984D02*
X24915420Y-10238508D01*
X24915420Y-10238508D02*
X24924944Y-10248031D01*
X24924944Y-10248031D02*
X24934467Y-10267079D01*
X24934467Y-10267079D02*
X24934467Y-10286127D01*
X24934467Y-10286127D02*
X24924944Y-10314698D01*
X24924944Y-10314698D02*
X24810658Y-10428984D01*
X24810658Y-10428984D02*
X24934467Y-10428984D01*
X25001134Y-10228984D02*
X25134467Y-10228984D01*
X25134467Y-10228984D02*
X25048753Y-10428984D01*
X25201134Y-10228984D02*
X25201134Y-10267079D01*
X25277325Y-10228984D02*
X25277325Y-10267079D01*
X25572563Y-10505174D02*
X25563039Y-10495650D01*
X25563039Y-10495650D02*
X25543991Y-10467079D01*
X25543991Y-10467079D02*
X25534468Y-10448031D01*
X25534468Y-10448031D02*
X25524944Y-10419460D01*
X25524944Y-10419460D02*
X25515420Y-10371841D01*
X25515420Y-10371841D02*
X25515420Y-10333746D01*
X25515420Y-10333746D02*
X25524944Y-10286127D01*
X25524944Y-10286127D02*
X25534468Y-10257555D01*
X25534468Y-10257555D02*
X25543991Y-10238508D01*
X25543991Y-10238508D02*
X25563039Y-10209936D01*
X25563039Y-10209936D02*
X25572563Y-10200412D01*
X25753515Y-10428984D02*
X25639229Y-10428984D01*
X25696372Y-10428984D02*
X25696372Y-10228984D01*
X25696372Y-10228984D02*
X25677325Y-10257555D01*
X25677325Y-10257555D02*
X25658277Y-10276603D01*
X25658277Y-10276603D02*
X25639229Y-10286127D01*
X25991610Y-10428984D02*
X25991610Y-10228984D01*
X26077325Y-10428984D02*
X26077325Y-10324222D01*
X26077325Y-10324222D02*
X26067801Y-10305174D01*
X26067801Y-10305174D02*
X26048753Y-10295650D01*
X26048753Y-10295650D02*
X26020182Y-10295650D01*
X26020182Y-10295650D02*
X26001134Y-10305174D01*
X26001134Y-10305174D02*
X25991610Y-10314698D01*
X26201134Y-10428984D02*
X26182087Y-10419460D01*
X26182087Y-10419460D02*
X26172563Y-10409936D01*
X26172563Y-10409936D02*
X26163039Y-10390889D01*
X26163039Y-10390889D02*
X26163039Y-10333746D01*
X26163039Y-10333746D02*
X26172563Y-10314698D01*
X26172563Y-10314698D02*
X26182087Y-10305174D01*
X26182087Y-10305174D02*
X26201134Y-10295650D01*
X26201134Y-10295650D02*
X26229706Y-10295650D01*
X26229706Y-10295650D02*
X26248753Y-10305174D01*
X26248753Y-10305174D02*
X26258277Y-10314698D01*
X26258277Y-10314698D02*
X26267801Y-10333746D01*
X26267801Y-10333746D02*
X26267801Y-10390889D01*
X26267801Y-10390889D02*
X26258277Y-10409936D01*
X26258277Y-10409936D02*
X26248753Y-10419460D01*
X26248753Y-10419460D02*
X26229706Y-10428984D01*
X26229706Y-10428984D02*
X26201134Y-10428984D01*
X26382087Y-10428984D02*
X26363039Y-10419460D01*
X26363039Y-10419460D02*
X26353515Y-10400412D01*
X26353515Y-10400412D02*
X26353515Y-10228984D01*
X26534468Y-10419460D02*
X26515420Y-10428984D01*
X26515420Y-10428984D02*
X26477325Y-10428984D01*
X26477325Y-10428984D02*
X26458277Y-10419460D01*
X26458277Y-10419460D02*
X26448753Y-10400412D01*
X26448753Y-10400412D02*
X26448753Y-10324222D01*
X26448753Y-10324222D02*
X26458277Y-10305174D01*
X26458277Y-10305174D02*
X26477325Y-10295650D01*
X26477325Y-10295650D02*
X26515420Y-10295650D01*
X26515420Y-10295650D02*
X26534468Y-10305174D01*
X26534468Y-10305174D02*
X26543991Y-10324222D01*
X26543991Y-10324222D02*
X26543991Y-10343270D01*
X26543991Y-10343270D02*
X26448753Y-10362317D01*
X26610658Y-10505174D02*
X26620182Y-10495650D01*
X26620182Y-10495650D02*
X26639230Y-10467079D01*
X26639230Y-10467079D02*
X26648753Y-10448031D01*
X26648753Y-10448031D02*
X26658277Y-10419460D01*
X26658277Y-10419460D02*
X26667801Y-10371841D01*
X26667801Y-10371841D02*
X26667801Y-10333746D01*
X26667801Y-10333746D02*
X26658277Y-10286127D01*
X26658277Y-10286127D02*
X26648753Y-10257555D01*
X26648753Y-10257555D02*
X26639230Y-10238508D01*
X26639230Y-10238508D02*
X26620182Y-10209936D01*
X26620182Y-10209936D02*
X26610658Y-10200412D01*
X26972563Y-10505174D02*
X26963039Y-10495650D01*
X26963039Y-10495650D02*
X26943991Y-10467079D01*
X26943991Y-10467079D02*
X26934468Y-10448031D01*
X26934468Y-10448031D02*
X26924944Y-10419460D01*
X26924944Y-10419460D02*
X26915420Y-10371841D01*
X26915420Y-10371841D02*
X26915420Y-10333746D01*
X26915420Y-10333746D02*
X26924944Y-10286127D01*
X26924944Y-10286127D02*
X26934468Y-10257555D01*
X26934468Y-10257555D02*
X26943991Y-10238508D01*
X26943991Y-10238508D02*
X26963039Y-10209936D01*
X26963039Y-10209936D02*
X26972563Y-10200412D01*
X27048753Y-10295650D02*
X27048753Y-10428984D01*
X27048753Y-10314698D02*
X27058277Y-10305174D01*
X27058277Y-10305174D02*
X27077325Y-10295650D01*
X27077325Y-10295650D02*
X27105896Y-10295650D01*
X27105896Y-10295650D02*
X27124944Y-10305174D01*
X27124944Y-10305174D02*
X27134468Y-10324222D01*
X27134468Y-10324222D02*
X27134468Y-10428984D01*
X27258277Y-10428984D02*
X27239230Y-10419460D01*
X27239230Y-10419460D02*
X27229706Y-10409936D01*
X27229706Y-10409936D02*
X27220182Y-10390889D01*
X27220182Y-10390889D02*
X27220182Y-10333746D01*
X27220182Y-10333746D02*
X27229706Y-10314698D01*
X27229706Y-10314698D02*
X27239230Y-10305174D01*
X27239230Y-10305174D02*
X27258277Y-10295650D01*
X27258277Y-10295650D02*
X27286849Y-10295650D01*
X27286849Y-10295650D02*
X27305896Y-10305174D01*
X27305896Y-10305174D02*
X27315420Y-10314698D01*
X27315420Y-10314698D02*
X27324944Y-10333746D01*
X27324944Y-10333746D02*
X27324944Y-10390889D01*
X27324944Y-10390889D02*
X27315420Y-10409936D01*
X27315420Y-10409936D02*
X27305896Y-10419460D01*
X27305896Y-10419460D02*
X27286849Y-10428984D01*
X27286849Y-10428984D02*
X27258277Y-10428984D01*
X27382087Y-10295650D02*
X27458277Y-10295650D01*
X27410658Y-10228984D02*
X27410658Y-10400412D01*
X27410658Y-10400412D02*
X27420182Y-10419460D01*
X27420182Y-10419460D02*
X27439230Y-10428984D01*
X27439230Y-10428984D02*
X27458277Y-10428984D01*
X27677325Y-10295650D02*
X27677325Y-10495650D01*
X27677325Y-10305174D02*
X27696372Y-10295650D01*
X27696372Y-10295650D02*
X27734468Y-10295650D01*
X27734468Y-10295650D02*
X27753515Y-10305174D01*
X27753515Y-10305174D02*
X27763039Y-10314698D01*
X27763039Y-10314698D02*
X27772563Y-10333746D01*
X27772563Y-10333746D02*
X27772563Y-10390889D01*
X27772563Y-10390889D02*
X27763039Y-10409936D01*
X27763039Y-10409936D02*
X27753515Y-10419460D01*
X27753515Y-10419460D02*
X27734468Y-10428984D01*
X27734468Y-10428984D02*
X27696372Y-10428984D01*
X27696372Y-10428984D02*
X27677325Y-10419460D01*
X27886849Y-10428984D02*
X27867801Y-10419460D01*
X27867801Y-10419460D02*
X27858277Y-10400412D01*
X27858277Y-10400412D02*
X27858277Y-10228984D01*
X28048753Y-10428984D02*
X28048753Y-10324222D01*
X28048753Y-10324222D02*
X28039230Y-10305174D01*
X28039230Y-10305174D02*
X28020182Y-10295650D01*
X28020182Y-10295650D02*
X27982087Y-10295650D01*
X27982087Y-10295650D02*
X27963039Y-10305174D01*
X28048753Y-10419460D02*
X28029706Y-10428984D01*
X28029706Y-10428984D02*
X27982087Y-10428984D01*
X27982087Y-10428984D02*
X27963039Y-10419460D01*
X27963039Y-10419460D02*
X27953515Y-10400412D01*
X27953515Y-10400412D02*
X27953515Y-10381365D01*
X27953515Y-10381365D02*
X27963039Y-10362317D01*
X27963039Y-10362317D02*
X27982087Y-10352793D01*
X27982087Y-10352793D02*
X28029706Y-10352793D01*
X28029706Y-10352793D02*
X28048753Y-10343270D01*
X28115420Y-10295650D02*
X28191611Y-10295650D01*
X28143992Y-10228984D02*
X28143992Y-10400412D01*
X28143992Y-10400412D02*
X28153515Y-10419460D01*
X28153515Y-10419460D02*
X28172563Y-10428984D01*
X28172563Y-10428984D02*
X28191611Y-10428984D01*
X28334468Y-10419460D02*
X28315420Y-10428984D01*
X28315420Y-10428984D02*
X28277325Y-10428984D01*
X28277325Y-10428984D02*
X28258277Y-10419460D01*
X28258277Y-10419460D02*
X28248753Y-10400412D01*
X28248753Y-10400412D02*
X28248753Y-10324222D01*
X28248753Y-10324222D02*
X28258277Y-10305174D01*
X28258277Y-10305174D02*
X28277325Y-10295650D01*
X28277325Y-10295650D02*
X28315420Y-10295650D01*
X28315420Y-10295650D02*
X28334468Y-10305174D01*
X28334468Y-10305174D02*
X28343992Y-10324222D01*
X28343992Y-10324222D02*
X28343992Y-10343270D01*
X28343992Y-10343270D02*
X28248753Y-10362317D01*
X28515420Y-10428984D02*
X28515420Y-10228984D01*
X28515420Y-10419460D02*
X28496373Y-10428984D01*
X28496373Y-10428984D02*
X28458277Y-10428984D01*
X28458277Y-10428984D02*
X28439230Y-10419460D01*
X28439230Y-10419460D02*
X28429706Y-10409936D01*
X28429706Y-10409936D02*
X28420182Y-10390889D01*
X28420182Y-10390889D02*
X28420182Y-10333746D01*
X28420182Y-10333746D02*
X28429706Y-10314698D01*
X28429706Y-10314698D02*
X28439230Y-10305174D01*
X28439230Y-10305174D02*
X28458277Y-10295650D01*
X28458277Y-10295650D02*
X28496373Y-10295650D01*
X28496373Y-10295650D02*
X28515420Y-10305174D01*
X28591611Y-10505174D02*
X28601134Y-10495650D01*
X28601134Y-10495650D02*
X28620182Y-10467079D01*
X28620182Y-10467079D02*
X28629706Y-10448031D01*
X28629706Y-10448031D02*
X28639230Y-10419460D01*
X28639230Y-10419460D02*
X28648753Y-10371841D01*
X28648753Y-10371841D02*
X28648753Y-10333746D01*
X28648753Y-10333746D02*
X28639230Y-10286127D01*
X28639230Y-10286127D02*
X28629706Y-10257555D01*
X28629706Y-10257555D02*
X28620182Y-10238508D01*
X28620182Y-10238508D02*
X28601134Y-10209936D01*
X28601134Y-10209936D02*
X28591611Y-10200412D01*
M02*
