M48
; DRILL file {KiCad 9.0.6} date 2025-11-19T16:31:42+0800
; FORMAT={-:-/ absolute / metric / decimal}
; #@! TF.CreationDate,2025-11-19T16:31:42+08:00
; #@! TF.GenerationSoftware,Kicad,Pcbnew,9.0.6
; #@! TF.FileFunction,Plated,1,2,PTH
FMAT,2
METRIC
; #@! TA.AperFunction,Plated,PTH,ViaDrill
T1C0.300
; #@! TA.AperFunction,Plated,PTH,ComponentDrill
T2C0.750
; #@! TA.AperFunction,Plated,PTH,ComponentDrill
T3C0.800
; #@! TA.AperFunction,Plated,PTH,ComponentDrill
T4C0.900
; #@! TA.AperFunction,Plated,PTH,ComponentDrill
T5C1.300
%
G90
G05
T1
X225.0Y-95.5
X233.0Y-88.75
X233.1Y-83.35
X233.1Y-85.9
X238.5Y-78.5
X241.425Y-82.325
X243.65Y-80.75
T2
X235.96Y-75.25
X237.23Y-73.98
X238.5Y-75.25
T3
X222.92Y-95.0
X225.46Y-92.46
X228.0Y-95.0
X237.23Y-92.045
X237.23Y-94.045
T4
X244.91Y-84.61
X244.91Y-92.28
X244.96Y-77.05
X247.45Y-84.61
X247.45Y-92.28
X247.5Y-77.05
T5
X225.327Y-81.8
X225.327Y-86.88
M30
